<?xml version="1.0" encoding="UTF-8"?>
<svg version="1.1" xmlns="http://www.w3.org/2000/svg" width="657" height="368">
<path d="M0 0 C2.84524434 0.78278315 5.45679173 1.77437908 8.17211914 2.93017578 C9.2269751 3.37731934 10.28183105 3.82446289 11.36865234 4.28515625 C12.48844482 4.7661377 13.6082373 5.24711914 14.76196289 5.74267578 C15.91849365 6.23525879 17.07502441 6.7278418 18.26660156 7.23535156 C26.22250581 10.63836637 34.11937061 14.15940519 41.99267578 17.74853516 C46.35015703 19.72389093 50.71373943 21.57118947 55.19946289 23.24267578 C56.69606445 23.81888672 56.69606445 23.81888672 58.22290039 24.40673828 C60.14737333 25.14625485 62.07475193 25.87875568 64.01293945 26.58154297 C77.46810004 31.53598263 85.79342185 36.92848495 92.69946289 49.74267578 C92.69946289 50.40267578 92.69946289 51.06267578 92.69946289 51.74267578 C93.35946289 51.74267578 94.01946289 51.74267578 94.69946289 51.74267578 C97.23014813 55.20040116 98.11405432 57.88974045 98.3687439 62.1328125 C98.43305981 63.19062927 98.49737572 64.24844604 98.56364059 65.33831787 C98.80516365 71.39204352 98.92886902 77.44257179 98.9909668 83.50048828 C99.00869951 84.94089942 99.02658213 86.38130872 99.04460144 87.82171631 C99.19881447 100.87954279 99.24960667 113.93826799 99.27124977 126.99691772 C99.28746851 135.75381037 99.33596519 144.50812605 99.46411133 153.26416016 C99.57639607 160.93820392 99.62847944 168.60989817 99.60867059 176.2847805 C99.6001631 180.33574518 99.62032162 184.38167529 99.71263504 188.43170166 C100.24219957 212.9439714 100.24219957 212.9439714 96.01939392 219.25260353 C92.1131778 223.19552396 87.73905928 225.69612843 82.66604996 227.86442757 C80.09044872 229.01465235 77.94196714 230.56753515 75.71508789 232.28564453 C74.46030334 233.16775807 73.20512788 234.04931597 71.94946289 234.93017578 C71.30493164 235.39230469 70.66040039 235.85443359 69.99633789 236.33056641 C66.55150491 238.7341845 63.89279295 240.34297408 59.69946289 240.74267578 C57.12216187 240.02340698 57.12216187 240.02340698 54.34936523 238.82421875 C53.30412689 238.37980438 52.25888855 237.93539001 51.18197632 237.47750854 C50.06110626 236.98493561 48.94023621 236.49236267 47.78540039 235.98486328 C46.61997711 235.48479767 45.45455383 234.98473206 44.2538147 234.46951294 C41.15324876 233.13607967 38.05813257 231.7912834 34.96496582 230.44085693 C31.85348024 229.08602365 28.73507791 227.74731701 25.61743164 226.40673828 C16.08542749 222.29841881 6.56688386 218.16984989 -2.87004089 213.84675598 C-6.88387084 212.02342865 -10.9338425 210.28645458 -14.98803711 208.55517578 C-15.87233398 208.17643311 -16.75663086 207.79769043 -17.66772461 207.4074707 C-24.69192495 204.40785795 -31.74394383 201.477581 -38.80053711 198.55517578 C-45.98591746 195.57879538 -53.08990795 192.51682494 -60.12084961 189.19189453 C-66.7571035 186.16726284 -73.54133995 183.47873403 -80.30053711 180.74267578 C-80.30053711 179.42267578 -80.30053711 178.10267578 -80.30053711 176.74267578 C-79.34147461 176.34048828 -79.34147461 176.34048828 -78.36303711 175.93017578 C-75.96922025 174.85599826 -75.96922025 174.85599826 -75.30053711 171.74267578 C-73.98022461 170.41064453 -73.98022461 170.41064453 -72.17553711 168.93017578 C-69.20244997 166.42366801 -66.32604881 163.84598379 -63.50366211 161.17236328 C-62.49843506 160.22067261 -62.49843506 160.22067261 -61.47290039 159.24975586 C-60.11375405 157.95884236 -58.75792202 156.6644299 -57.40551758 155.36645508 C-56.46023193 154.47180542 -56.46023193 154.47180542 -55.49584961 153.55908203 C-54.92882324 153.01711182 -54.36179687 152.4751416 -53.77758789 151.91674805 C-52.30053711 150.74267578 -52.30053711 150.74267578 -50.30053711 150.74267578 C-50.30053711 150.08267578 -50.30053711 149.42267578 -50.30053711 148.74267578 C-48.34344562 146.06625596 -46.21965756 144.30383363 -43.30053711 142.74267578 C-33.9935254 143.36626312 -23.42818481 149.67988115 -14.86303711 153.24267578 C-13.11928343 153.9636772 -11.37530336 154.68413132 -9.63110352 155.40405273 C-6.14954275 156.84141712 -2.66879714 158.28072539 0.8112793 159.72167969 C7.47390767 162.47859014 14.14745452 165.20828886 20.82446289 167.93017578 C22.36444946 168.56052734 22.36444946 168.56052734 23.93554688 169.20361328 C31.15728615 172.14926784 38.4159204 174.94131328 45.69946289 177.74267578 C45.69946289 144.41267578 45.69946289 111.08267578 45.69946289 76.74267578 C35.79946289 72.45267578 25.89946289 68.16267578 15.69946289 63.74267578 C3.13696289 57.99267578 3.13696289 57.99267578 -2.65600586 55.31298828 C-9.10693245 52.35040666 -15.6284762 49.55931486 -22.17773438 46.82177734 C-28.01238789 44.36545658 -33.6683715 41.63237681 -39.30053711 38.74267578 C-38.46457525 34.58697022 -36.73164362 32.83145279 -33.67553711 29.86767578 C-32.7719043 28.98982422 -31.86827148 28.11197266 -30.93725586 27.20751953 C-28.29269862 24.73534824 -25.59983338 22.35710663 -22.82006836 20.03955078 C-20.51306446 18.07059115 -18.41596741 15.9137753 -16.30053711 13.74267578 C-14.63387044 12.07600911 -12.96720378 10.40934245 -11.30053711 8.74267578 C-10.59413086 7.96666016 -9.88772461 7.19064453 -9.15991211 6.39111328 C-8.38131836 5.55837891 -7.60272461 4.72564453 -6.80053711 3.86767578 C-6.06834961 3.06587891 -5.33616211 2.26408203 -4.58178711 1.43798828 C-2.30053711 -0.25732422 -2.30053711 -0.25732422 0 0 Z " fill="#D5AD26" transform="translate(370.300537109375,4.25732421875)"/>
<path d="M0 0 C0.84263397 0.36112885 1.68526794 0.72225769 2.55343628 1.09432983 C3.52250412 1.50687012 4.49157196 1.9194104 5.49000549 2.3444519 C6.53429214 2.79477783 7.5785788 3.24510376 8.6545105 3.70907593 C9.75136673 4.17760986 10.84822296 4.6461438 11.97831726 5.12887573 C15.55721941 6.65892846 19.13319573 8.19569694 22.709198 9.73251343 C25.17956043 10.79062963 27.65055814 11.84725838 30.12155151 12.90390015 C37.27843531 15.96556402 44.4315306 19.03601158 51.584198 22.10751343 C53.40789272 22.89014881 55.23161987 23.67270864 57.0553894 24.45516968 C57.86785126 24.80374527 58.68031311 25.15232086 59.51739502 25.51145935 C61.05289009 26.17019771 62.588392 26.82892011 64.12390137 27.48762512 C64.84846527 27.79845535 65.57302917 28.10928558 66.31954956 28.42953491 C67.01987305 28.72995697 67.72019653 29.03037903 68.44174194 29.33990479 C70.51130232 30.22805214 72.58047119 31.11710727 74.64962769 32.00619507 C81.46818475 34.93349638 88.29666937 37.83505917 95.14279175 40.69735718 C95.84647385 40.99162598 96.55015594 41.28589478 97.27516174 41.58908081 C100.58334525 42.97145488 103.8929436 44.35028233 107.20504761 45.72323608 C115.08906976 49.00621711 122.8559983 52.47331425 130.584198 56.10751343 C129.83965296 59.52909398 129.14909031 60.83253602 126.396698 63.04501343 C122.32909653 66.43834582 118.44868607 69.98750918 114.584198 73.60751343 C110.22161287 77.67741587 105.86001339 81.73667048 101.31466675 85.60360718 C100.09620961 86.6625372 98.91374922 87.7636057 97.75997925 88.89266968 C97.16572144 89.45856812 96.57146362 90.02446655 95.959198 90.60751343 C95.45130737 91.11282593 94.94341675 91.61813843 94.4201355 92.13876343 C91.49333409 93.68311821 89.76800164 92.94783475 86.584198 92.10751343 C83.09805131 90.89042839 79.6881707 89.50688047 76.271698 88.10751343 C74.69642334 87.47003174 74.69642334 87.47003174 73.08932495 86.81967163 C51.5289254 78.06004904 30.06569403 69.05813677 8.584198 60.10751343 C8.914198 93.43751343 9.244198 126.76751343 9.584198 161.10751343 C19.28284128 165.95683507 28.80405673 170.64272007 38.75442505 174.86642456 C42.0239744 176.25489944 45.2863409 177.66006911 48.54904175 179.06454468 C49.1765332 179.3343515 49.80402466 179.60415833 50.45053101 179.88214111 C56.01884448 182.28211886 61.51078922 184.81202463 66.98654175 187.41610718 C72.5862663 190.04876812 78.23829469 192.56441001 83.88742065 195.08895874 C84.69872437 195.4521521 85.51002808 195.81534546 86.34591675 196.18954468 C87.06738892 196.5115686 87.78886108 196.83359253 88.53219604 197.16537476 C90.57338066 198.10254685 92.5812426 199.09152156 94.584198 200.10751343 C94.334198 201.98251343 94.334198 201.98251343 93.584198 204.10751343 C92.25952053 204.79121793 90.92556167 205.45715528 89.584198 206.10751343 C89.33540894 206.65923218 89.08661987 207.21095093 88.83029175 207.77938843 C86.99654757 211.20544338 84.33527716 213.64536463 81.584198 216.35751343 C81.0376355 216.9118103 80.491073 217.46610718 79.927948 218.03720093 C75.8375847 222.10751343 75.8375847 222.10751343 73.584198 222.10751343 C73.254198 223.09751343 72.924198 224.08751343 72.584198 225.10751343 C71.924198 225.10751343 71.264198 225.10751343 70.584198 225.10751343 C70.584198 225.76751343 70.584198 226.42751343 70.584198 227.10751343 C69.00997925 228.65829468 69.00997925 228.65829468 66.896698 230.42001343 C63.63118836 233.19250651 60.56503815 236.03352202 57.584198 239.10751343 C52.73265523 237.57119155 48.01050301 235.91291279 43.32247925 233.93173218 C38.34498877 231.84143043 33.35758567 229.77790587 28.36154175 227.73251343 C26.901228 227.13362163 25.44094187 226.53466248 23.98068237 225.93563843 C21.74794645 225.0198956 19.51497019 224.10476278 17.28121948 223.1914978 C9.43705963 219.98342104 1.6388017 216.73327357 -6.05325317 213.17147827 C-8.23900527 212.18713316 -10.4348382 211.29496246 -12.6736145 210.43954468 C-21.84065489 206.89540153 -27.41076917 203.08380624 -33.415802 195.10751343 C-34.1827152 194.18208929 -34.94962839 193.25666515 -35.73978138 192.30319786 C-42.3651157 183.78766649 -43.72674987 176.76698295 -43.59622192 166.05526733 C-43.61009007 164.48833586 -43.62775424 162.92143417 -43.64888 161.35458374 C-43.69378901 157.13951944 -43.68252645 152.92642059 -43.65766311 148.71125841 C-43.64235896 145.18198149 -43.65581265 141.65304873 -43.66930181 138.12378252 C-43.7009524 129.79949957 -43.6876362 121.47615342 -43.64407349 113.15194702 C-43.59984329 104.57764832 -43.62470758 96.00554839 -43.68442839 87.43139327 C-43.73384423 80.04831337 -43.74428386 72.66590576 -43.72271997 65.28269136 C-43.71002154 60.88190795 -43.71107554 56.48229382 -43.74818993 52.08162308 C-43.78104658 47.94856525 -43.76494382 43.81849928 -43.71151924 39.6856842 C-43.69992725 38.17284281 -43.70523676 36.65975985 -43.72898102 35.14706039 C-43.89273731 23.74048529 -43.89273731 23.74048529 -40.25068092 19.71364975 C-37.71083842 17.91411632 -35.19562475 16.49844358 -32.415802 15.10751343 C-31.01392458 14.17016146 -29.62393152 13.21434704 -28.25564575 12.22860718 C-25.57679525 10.38306514 -22.89157044 8.54706276 -20.2048645 6.71298218 C-17.965234 5.18243884 -15.75862952 3.62948797 -13.5642395 2.03329468 C-12.79338013 1.48028687 -12.02252075 0.92727905 -11.228302 0.35751343 C-10.59537231 -0.11170532 -9.96244263 -0.58092407 -9.31033325 -1.06436157 C-6.09149128 -2.47136054 -3.18383375 -1.17622589 0 0 Z " fill="#D6AD25" transform="translate(236.41580200195313,22.892486572265625)"/>
<path d="M0 0 C0.99 0.495 0.99 0.495 2 1 C2 1.66 2 2.32 2 3 C2.886875 2.9175 3.77375 2.835 4.6875 2.75 C8.93842521 3.07082454 10.16065588 3.82000077 13 7 C13.74306241 10.32930357 13.64876373 13.6078761 13.59594727 17.0065918 C13.6000058 18.02350098 13.60406433 19.04041016 13.60824585 20.08813477 C13.6137686 22.29851476 13.60773917 24.50894666 13.59158516 26.71927452 C13.56616796 30.23215231 13.5709667 33.74385585 13.58348083 37.25679016 C13.60426062 44.73382151 13.58458227 52.21049248 13.5625 59.6875 C13.54131813 68.31158492 13.53705817 76.93528857 13.56300163 85.55936623 C13.56632864 88.9940953 13.54524295 92.4280754 13.52259827 95.86271667 C13.50956061 106.94693209 14.0842073 117.07699764 17.14024353 127.766922 C18 131 18 131 18 135 C18.66 135 19.32 135 20 135 C20.042721 136.66611905 20.04063832 138.33382885 20 140 C19.67 140.33 19.34 140.66 19 141 C19.25327449 143.02910711 19.57730068 145.04962145 19.9375 147.0625 C20.13214844 148.16722656 20.32679688 149.27195313 20.52734375 150.41015625 C20.68332031 151.26480469 20.83929688 152.11945313 21 153 C21.66 153 22.32 153 23 153 C26.44419134 164.52164009 26.44419134 164.52164009 26 170 C26.66 170 27.32 170 28 170 C28 170.66 28 171.32 28 172 C23.86567288 171.3360371 20.31943313 170.00505715 16.46875 168.375 C15.84425964 168.11211182 15.21976929 167.84922363 14.57635498 167.57836914 C12.54893358 166.72349057 10.52444066 165.86191065 8.5 165 C7.09877761 164.40720969 5.69740938 163.81476401 4.29589844 163.22265625 C0.8290856 161.75642506 -2.63520168 160.28434273 -6.09838867 158.80957031 C-7.84184733 158.06733011 -9.5859318 157.32656034 -11.33007812 156.5859375 C-19.9264295 152.93458825 -28.50277249 149.25853636 -36.98828125 145.35546875 C-49.04985339 139.92697908 -61.28085018 134.87291738 -73.5 129.8125 C-80.68538035 126.8361196 -87.78937084 123.77414916 -94.8203125 120.44921875 C-101.45656639 117.42458706 -108.24080284 114.73605825 -115 112 C-115 110.68 -115 109.36 -115 108 C-114.0409375 107.5978125 -114.0409375 107.5978125 -113.0625 107.1875 C-110.66868314 106.11332248 -110.66868314 106.11332248 -110 103 C-108.6796875 101.66796875 -108.6796875 101.66796875 -106.875 100.1875 C-103.90191286 97.68099223 -101.0255117 95.10330801 -98.203125 92.4296875 C-97.19789795 91.47799683 -97.19789795 91.47799683 -96.17236328 90.50708008 C-94.81321694 89.21616658 -93.45738491 87.92175412 -92.10498047 86.6237793 C-91.15969482 85.72912964 -91.15969482 85.72912964 -90.1953125 84.81640625 C-89.62828613 84.27443604 -89.06125977 83.73246582 -88.47705078 83.17407227 C-87 82 -87 82 -85 82 C-85 81.34 -85 80.68 -85 80 C-83.04290851 77.32358018 -80.91912045 75.56115785 -78 74 C-68.69298829 74.62358733 -58.1276477 80.93720537 -49.5625 84.5 C-47.81874632 85.22100141 -46.07476625 85.94145554 -44.33056641 86.66137695 C-40.84900564 88.09874134 -37.36826003 89.53804961 -33.88818359 90.97900391 C-27.22555522 93.73591436 -20.55200837 96.46561308 -13.875 99.1875 C-12.84834229 99.60773438 -11.82168457 100.02796875 -10.76391602 100.4609375 C-3.54217675 103.40659206 3.71645751 106.1986375 11 109 C11 75.67 11 42.34 11 8 C6.38 6.02 1.76 4.04 -3 2 C-2.01 1.34 -1.02 0.68 0 0 Z " fill="#C3A549" transform="translate(405,73)"/>
<path d="M0 0 C6.17608704 0.56169969 11.41946663 3.15562794 17.01953125 5.63671875 C18.09819962 6.10798691 19.17686798 6.57925507 20.28822327 7.06480408 C22.59925364 8.07528952 24.9089633 9.08879987 27.21746826 10.1050415 C32.04781953 12.23126207 36.88457138 14.34272038 41.72113037 16.45477295 C44.13082987 17.50714943 46.54021396 18.56024844 48.94927979 19.61407471 C58.23426556 23.67415235 67.54060787 27.67996758 76.875 31.625 C77.5143045 31.8955722 78.15360901 32.16614441 78.81228638 32.44491577 C86.01008246 35.4902649 93.21799078 38.51117557 100.4296875 41.5234375 C101.13072601 41.81650787 101.83176453 42.10957825 102.55404663 42.41152954 C105.87427274 43.79949884 109.19536182 45.18526506 112.51904297 46.56494141 C120.43567287 49.86703632 128.23777421 53.35023314 136 57 C135.25545497 60.42158056 134.56489231 61.7250226 131.8125 63.9375 C127.74489853 67.33083239 123.86448807 70.87999575 120 74.5 C115.63741487 78.56990245 111.27581539 82.62915705 106.73046875 86.49609375 C105.51201161 87.55502377 104.32955122 88.65609228 103.17578125 89.78515625 C102.58152344 90.35105469 101.98726563 90.91695313 101.375 91.5 C100.86710937 92.0053125 100.35921875 92.510625 99.8359375 93.03125 C96.90913609 94.57560479 95.18380365 93.84032133 92 93 C88.51385331 91.78291496 85.1039727 90.39936705 81.6875 89 C80.11222534 88.36251831 80.11222534 88.36251831 78.50512695 87.7121582 C56.9447274 78.95253561 35.48149603 69.95062335 14 61 C14.33 94.33 14.66 127.66 15 162 C18.96 163.98 22.92 165.96 27 168 C22.59662012 169.10084497 21.73201586 168.7915332 17.75 167.0625 C16.41195312 166.49208984 16.41195312 166.49208984 15.046875 165.91015625 C14.37140625 165.60980469 13.6959375 165.30945313 13 165 C12.99761165 164.44285214 12.99522329 163.88570429 12.99276257 163.31167316 C12.93360108 149.74884319 12.85785519 136.18619292 12.76428509 122.62355518 C12.71953614 116.06472308 12.68028981 109.50595375 12.65356445 102.94702148 C12.62757691 96.61862601 12.58720632 90.29047152 12.53681374 83.96222496 C12.5201143 81.54651573 12.50861924 79.13076479 12.50238609 76.71500587 C12.49277873 73.33424168 12.46475862 69.9540983 12.43237305 66.57348633 C12.43380814 65.57223221 12.43524323 64.57097809 12.4367218 63.53938293 C12.36765862 58.44967572 12.13327593 55.2186568 9 51 C8.62890625 48.1953125 8.62890625 48.1953125 8.5625 45.125 C8.20819397 38.80418049 6.84968712 33.20114451 5.12109375 27.12890625 C3.79766966 22.39973114 2.76341051 17.61623983 1.75 12.8125 C1.5749292 11.9982959 1.3998584 11.1840918 1.21948242 10.34521484 C1.05939697 9.57773926 0.89931152 8.81026367 0.734375 8.01953125 C0.59225586 7.33995361 0.45013672 6.66037598 0.30371094 5.96020508 C0 4 0 4 0 0 Z " fill="#C4A54A" transform="translate(231,22)"/>
<path d="M0 0 C0.99 0 1.98 0 3 0 C3 21.78 3 43.56 3 66 C-1.51780824 65.24703196 -4.43030628 64.58436761 -8.484375 62.85546875 C-10.01191406 62.21061523 -10.01191406 62.21061523 -11.5703125 61.55273438 C-12.61960937 61.10220703 -13.66890625 60.65167969 -14.75 60.1875 C-16.82784244 59.30532375 -18.90596473 58.42380635 -20.984375 57.54296875 C-21.98791016 57.11161621 -22.99144531 56.68026367 -24.02539062 56.23583984 C-25.98559386 55.42144812 -27.96406734 54.64953129 -29.95898438 53.92431641 C-30.86455078 53.5947998 -31.77011719 53.2652832 -32.703125 52.92578125 C-33.50911133 52.64774658 -34.31509766 52.36971191 -35.14550781 52.08325195 C-37 51 -37 51 -37.75585938 49.02978516 C-38.36739251 43.94549869 -38.83200796 38.97054516 -36.8125 34.1875 C-34.67286827 31.60518585 -32.4973907 29.24124807 -30 27 C-29.34 27 -28.68 27 -28 27 C-28 26.34 -28 25.68 -28 25 C-26.38281689 23.5671282 -24.70376628 22.20375251 -23 20.875 C-18.69370458 17.43437473 -14.75519534 13.87790284 -10.921875 9.92578125 C-8.25774605 7.2562374 -5.4259654 4.80430296 -2.56640625 2.34765625 C-1.68751602 1.59150381 -0.81982149 0.81982149 0 0 Z " fill="#C4A74D" transform="translate(365,90)"/>
<path d="M0 0 C3.3 0 6.6 0 10 0 C13.69205862 9.24106981 17.26911439 18.50202057 20.4375 27.9375 C20.69611816 28.69981934 20.95473633 29.46213867 21.22119141 30.24755859 C22.22293807 33.27751612 23 35.78712588 23 39 C19.37 39 15.74 39 12 39 C11.67 37.35 11.34 35.7 11 34 C9.04081032 34.05991406 7.08248471 34.14867138 5.125 34.25 C4.03445313 34.29640625 2.94390625 34.3428125 1.8203125 34.390625 C0.42425781 34.69226563 0.42425781 34.69226563 -1 35 C-2.20171307 36.9836238 -2.20171307 36.9836238 -3 39 C-20.14441317 40.22217599 -20.14441317 40.22217599 -24.59765625 37.2890625 C-26.58567 34.58301921 -28 32.40920907 -28 29 C-28.66 29 -29.32 29 -30 29 C-29.98839844 29.63808594 -29.97679687 30.27617187 -29.96484375 30.93359375 C-29.95582031 31.75988281 -29.94679688 32.58617187 -29.9375 33.4375 C-29.92589844 34.26121094 -29.91429687 35.08492188 -29.90234375 35.93359375 C-30 38 -30 38 -31 39 C-34.3 39 -37.6 39 -41 39 C-41 26.46 -41 13.92 -41 1 C-22.5625 1 -22.5625 1 -16.625 6 C-13.84228008 9.42488606 -13.73800349 12.69163532 -13.76171875 17.0078125 C-14.09536063 19.79727743 -15.50693849 21.66303416 -17 24 C-16.78083185 27.50669042 -14.79420111 30.05169116 -13 33 C-8.32041639 22.1334669 -4.17606922 11.06710154 0 0 Z M-30 11 C-30 13.97 -30 16.94 -30 20 C-27.49034386 19.29660434 -27.49034386 19.29660434 -25 18 C-23.8423415 16.12042756 -23.8423415 16.12042756 -24 14 C-25.16666667 12.16666667 -25.16666667 12.16666667 -27 11 C-27.99 11 -28.98 11 -30 11 Z M4 18 C3.34 20.31 2.68 22.62 2 25 C3.65 25 5.3 25 7 25 C6.34 22.69 5.68 20.38 5 18 C4.67 18 4.34 18 4 18 Z " fill="#363536" transform="translate(631,328)"/>
<path d="M0 0 C3.3 0 6.6 0 10 0 C10 12.87 10 25.74 10 39 C-9.53368194 40.08520455 -9.53368194 40.08520455 -13.66015625 37.03125 C-15.08650803 34.72574021 -16.05712391 32.53188555 -17 30 C-17.66 29.67 -18.32 29.34 -19 29 C-19 32.3 -19 35.6 -19 39 C-26.71484375 39.09765625 -26.71484375 39.09765625 -29 39 C-30 38 -30 38 -30.11352539 34.48999023 C-30.11336626 32.92951578 -30.10767142 31.36903607 -30.09765625 29.80859375 C-30.0962413 28.98875504 -30.09482635 28.16891632 -30.09336853 27.32423401 C-30.08775289 24.69528618 -30.07519779 22.06642227 -30.0625 19.4375 C-30.05748701 17.65950643 -30.05292376 15.88151154 -30.04882812 14.10351562 C-30.03777839 9.73564455 -30.02050331 5.36783652 -30 1 C-27.43337472 0.95259184 -24.86763397 0.91796013 -22.30078125 0.890625 C-21.57797974 0.87596191 -20.85517822 0.86129883 -20.11047363 0.84619141 C-14.17558895 0.7988071 -10.81513351 1.60108223 -6 5 C-2.90587188 8.25280136 -2.59204213 10.62966678 -2.625 15.0625 C-2.61726563 16.10535156 -2.60953125 17.14820313 -2.6015625 18.22265625 C-3.0391013 21.27255908 -3.59699587 22.16278255 -6 24 C-4.77263971 28.15414253 -3.672336 30.43688534 -1 34 C-0.67 22.78 -0.34 11.56 0 0 Z M-19 10 C-19 13.3 -19 16.6 -19 20 C-17.02 19.01 -15.04 18.02 -13 17 C-13.10613836 14.54775306 -13.10613836 14.54775306 -14 12 C-16.47636012 10.62533375 -16.47636012 10.62533375 -19 10 Z " fill="#363536" transform="translate(313,328)"/>
<path d="M0 0 C3.3 0 6.6 0 10 0 C10 4.95 10 9.9 10 15 C13.63 15 17.26 15 21 15 C21 10.05 21 5.1 21 0 C24.3 0 27.6 0 31 0 C31 12.87 31 25.74 31 39 C27.7 39 24.4 39 21 39 C21 34.38 21 29.76 21 25 C17.37 25 13.74 25 10 25 C10 29.62 10 34.24 10 39 C6.7 39 3.4 39 0 39 C0 26.13 0 13.26 0 0 Z " fill="#363536" transform="translate(143,328)"/>
<path d="M0 0 C2.97 0 5.94 0 9 0 C12.66793844 6.82387632 15.19646025 13.86211952 17.6875 21.1875 C18.09033203 22.34958984 18.49316406 23.51167969 18.90820312 24.70898438 C20.55163482 29.49613297 22.00482846 34.02414231 23 39 C19.37 39 15.74 39 12 39 C11.505 36.525 11.505 36.525 11 34 C9.04081032 34.05991406 7.08248471 34.14867138 5.125 34.25 C4.03445313 34.29640625 2.94390625 34.3428125 1.8203125 34.390625 C0.42425781 34.69226563 0.42425781 34.69226563 -1 35 C-1.66 36.32 -2.32 37.64 -3 39 C-6.63 39 -10.26 39 -14 39 C-12.31768852 31.08205494 -9.33835649 23.65743728 -6.4375 16.125 C-5.92473415 14.78140108 -5.41236114 13.43765218 -4.90039062 12.09375 C-1.18598497 2.37196995 -1.18598497 2.37196995 0 0 Z M4 18 C3.34 20.31 2.68 22.62 2 25 C3.65 24.67 5.3 24.34 7 24 C6.34 22.02 5.68 20.04 5 18 C4.67 18 4.34 18 4 18 Z " fill="#363535" transform="translate(475,328)"/>
<path d="M0 0 C2.97 0 5.94 0 9 0 C12.27232226 7.04160934 14.98184415 14.2143987 17.57421875 21.53198242 C18.25798212 23.4600074 18.94896407 25.38534278 19.640625 27.31054688 C23 36.74379185 23 36.74379185 23 39 C19.37 39 15.74 39 12 39 C11.34 37.68 10.68 36.36 10 35 C6.37 35 2.74 35 -1 35 C-1.66 36.32 -2.32 37.64 -3 39 C-6.63 39 -10.26 39 -14 39 C-13.1251491 34.62574551 -11.8879055 30.72143416 -10.3125 26.58203125 C-10.04993408 25.8835759 -9.78736816 25.18512054 -9.5168457 24.46549988 C-8.96386864 22.9965878 -8.40906501 21.5283622 -7.85253906 20.06079102 C-6.99937502 17.81085181 -6.15154581 15.55895991 -5.3046875 13.30664062 C-4.76593227 11.8774883 -4.2268801 10.44844786 -3.6875 9.01953125 C-3.43331299 8.34557816 -3.17912598 7.67162506 -2.91723633 6.97724915 C-1.11785569 2.23571137 -1.11785569 2.23571137 0 0 Z M4 18 C3.34 19.98 2.68 21.96 2 24 C4.475 24.495 4.475 24.495 7 25 C6.34 22.69 5.68 20.38 5 18 C4.67 18 4.34 18 4 18 Z " fill="#363536" transform="translate(118,328)"/>
<path d="M0 0 C1.43489809 -0.13536774 2.87347107 -0.23217143 4.3125 -0.3125 C5.11300781 -0.37050781 5.91351563 -0.42851562 6.73828125 -0.48828125 C9 0 9 0 10.62426758 2.0559082 C12.20756902 5.44420138 13.5061816 8.8786172 14.69921875 12.41796875 C14.9391304 13.1164241 15.17904205 13.81487946 15.42622375 14.53450012 C15.92888806 16.00180386 16.42877771 17.47006079 16.92602539 18.93920898 C17.68935151 21.19296669 18.46213255 23.4433152 19.23632812 25.69335938 C19.7245155 27.12220559 20.21216482 28.55123578 20.69921875 29.98046875 C20.93041916 30.65442184 21.16161957 31.32837494 21.39982605 32.02275085 C23 36.76808769 23 36.76808769 23 39 C19.37 39 15.74 39 12 39 C11.505 36.525 11.505 36.525 11 34 C9.04081032 34.05991406 7.08248471 34.14867138 5.125 34.25 C4.03445312 34.29640625 2.94390625 34.3428125 1.8203125 34.390625 C0.42425781 34.69226563 0.42425781 34.69226563 -1 35 C-1.66 36.32 -2.32 37.64 -3 39 C-6.63 39 -10.26 39 -14 39 C-13.08728138 34.43640692 -11.73395264 30.38207296 -10.05859375 26.07421875 C-9.77146011 25.32662796 -9.48432648 24.57903717 -9.18849182 23.80879211 C-8.27523537 21.43356761 -7.3564549 19.06052486 -6.4375 16.6875 C-5.81538879 15.07240671 -5.19363997 13.4571738 -4.57226562 11.84179688 C-3.05236928 7.89290174 -1.52751687 3.94595327 0 0 Z M4 18 C3.67 20.31 3.34 22.62 3 25 C4.32 24.67 5.64 24.34 7 24 C6.34 22.02 5.68 20.04 5 18 C4.67 18 4.34 18 4 18 Z " fill="#363535" transform="translate(189,328)"/>
<path d="M0 0 C2.97 0 5.94 0 9 0 C12.75884992 6.82389344 15.16777102 13.98918423 17.57421875 21.3659668 C18.25698296 23.45890551 18.94803918 25.54896488 19.640625 27.63867188 C23 37.81960203 23 37.81960203 23 39 C19.37 39 15.74 39 12 39 C11.505 36.525 11.505 36.525 11 34 C6.71 34 2.42 34 -2 34 C-2.495 36.475 -2.495 36.475 -3 39 C-6.63 39 -10.26 39 -14 39 C-13.40713852 34.72463316 -12.38532276 30.99126263 -10.8203125 26.97265625 C-10.38589844 25.85052734 -9.95148438 24.72839844 -9.50390625 23.57226562 C-9.04886719 22.41404297 -8.59382813 21.25582031 -8.125 20.0625 C-7.67769531 18.90814453 -7.23039062 17.75378906 -6.76953125 16.56445312 C-4.60522981 11.00047465 -2.40260115 5.46551983 0 0 Z M4 18 C3.34 20.31 2.68 22.62 2 25 C3.65 25 5.3 25 7 25 C6.34 22.69 5.68 20.38 5 18 C4.67 18 4.34 18 4 18 Z " fill="#363535" transform="translate(366,328)"/>
<path d="M0 0 C1.23556641 0.01740234 1.23556641 0.01740234 2.49609375 0.03515625 C3.32238281 0.04417969 4.14867187 0.05320312 5 0.0625 C5.63808594 0.07410156 6.27617187 0.08570313 6.93359375 0.09765625 C10.44733134 7.95288692 13.39138675 15.98417839 16.24609375 24.09765625 C16.60767578 25.11287354 16.96925781 26.12809082 17.34179688 27.17407227 C17.67759766 28.13885498 18.01339844 29.1036377 18.359375 30.09765625 C18.66270752 30.96390625 18.96604004 31.83015625 19.27856445 32.72265625 C19.93359375 35.09765625 19.93359375 35.09765625 19.93359375 39.09765625 C16.63359375 39.09765625 13.33359375 39.09765625 9.93359375 39.09765625 C9.27359375 37.77765625 8.61359375 36.45765625 7.93359375 35.09765625 C5.05490025 34.39230014 5.05490025 34.39230014 1.80859375 34.34765625 C0.16503906 34.26257813 0.16503906 34.26257813 -1.51171875 34.17578125 C-2.35476562 34.15 -3.1978125 34.12421875 -4.06640625 34.09765625 C-5.05640625 36.57265625 -5.05640625 36.57265625 -6.06640625 39.09765625 C-9.36640625 39.09765625 -12.66640625 39.09765625 -16.06640625 39.09765625 C-15.43745388 33.86742072 -13.78075226 29.43500069 -11.81640625 24.59765625 C-9.04985319 17.65699307 -6.45428569 10.6857978 -4.01171875 3.625 C-2.70363622 0.12777109 -2.70363622 0.12777109 0 0 Z M1.93359375 18.09765625 C0.47296525 20.74504541 -0.06640625 21.99213959 -0.06640625 25.09765625 C1.58359375 25.09765625 3.23359375 25.09765625 4.93359375 25.09765625 C4.27359375 22.78765625 3.61359375 20.47765625 2.93359375 18.09765625 C2.60359375 18.09765625 2.27359375 18.09765625 1.93359375 18.09765625 Z " fill="#363535" transform="translate(248.06640625,327.90234375)"/>
<path d="M0 0 C1.23556641 0.01740234 1.23556641 0.01740234 2.49609375 0.03515625 C3.32238281 0.04417969 4.14867187 0.05320312 5 0.0625 C5.63808594 0.07410156 6.27617188 0.08570313 6.93359375 0.09765625 C6.95341309 0.83927002 6.97323242 1.58088379 6.99365234 2.3449707 C7.08882303 5.70039459 7.19853469 9.05518911 7.30859375 12.41015625 C7.33953125 13.57740234 7.37046875 14.74464844 7.40234375 15.94726562 C7.44101562 17.06552734 7.4796875 18.18378906 7.51953125 19.3359375 C7.55095215 20.36759033 7.58237305 21.39924316 7.61474609 22.4621582 C7.76034004 25.32608861 7.76034004 25.32608861 9.93359375 28.09765625 C12.93359375 28.51432292 12.93359375 28.51432292 15.93359375 28.09765625 C18.61207921 25.41917079 18.23863381 23.95794764 18.34765625 20.21484375 C18.38632812 19.04824219 18.425 17.88164062 18.46484375 16.6796875 C18.49578125 15.45636719 18.52671875 14.23304688 18.55859375 12.97265625 C18.59726562 11.74160156 18.6359375 10.51054687 18.67578125 9.2421875 C18.77029365 6.19416249 18.85584869 3.14614763 18.93359375 0.09765625 C22.23359375 0.09765625 25.53359375 0.09765625 28.93359375 0.09765625 C29.05781884 4.26015232 29.14822022 8.42164795 29.20825195 12.58544922 C29.233293 13.99970307 29.26733717 15.41382882 29.31079102 16.82763672 C29.70829915 30.09973189 29.70829915 30.09973189 26.62109375 33.94140625 C20.93381387 38.50445639 16.02481216 39.77301038 8.93359375 39.09765625 C4.10018605 37.23865329 0.61784554 34.77030285 -2.16137695 30.36010742 C-3.33867844 27.4170125 -3.30866365 25.00292246 -3.296875 21.8359375 C-3.29494141 20.63517578 -3.29300781 19.43441406 -3.29101562 18.19726562 C-3.27876953 16.94751953 -3.26652344 15.69777344 -3.25390625 14.41015625 C-3.25326172 13.14880859 -3.25261719 11.88746094 -3.25195312 10.58789062 C-3.20137188 0.15129357 -3.20137188 0.15129357 0 0 Z " fill="#363536" transform="translate(531.06640625,327.90234375)"/>
<path d="M0 0 C3.85544798 1.99657127 5.59805092 3.39707638 8 7 C8 8.65 8 10.3 8 12 C4.7 12 1.4 12 -2 12 C-2.33 11.34 -2.66 10.68 -3 10 C-3.99 10 -4.98 10 -6 10 C-6 10.66 -6 11.32 -6 12 C-5.33613281 12.23074219 -4.67226563 12.46148437 -3.98828125 12.69921875 C6.07376549 16.41556594 6.07376549 16.41556594 9 21 C9.85065813 26.08095803 9.83743653 30.39212187 7.4375 35 C3.10198129 38.55734868 -0.87229204 40.32135539 -6.5 40.0625 C-11.47719603 39.26989858 -14.99567789 37.05359282 -18 33 C-18.9375 29.125 -18.9375 29.125 -19 26 C-17.37581255 25.91909029 -15.75048255 25.86085005 -14.125 25.8125 C-13.22007812 25.77769531 -12.31515625 25.74289062 -11.3828125 25.70703125 C-10.20332031 25.85205078 -10.20332031 25.85205078 -9 26 C-8.34 26.99 -7.68 27.98 -7 29 C-4.41619823 29.25030977 -4.41619823 29.25030977 -2 29 C-2 27.68 -2 26.36 -2 25 C-5.96 23.35 -9.92 21.7 -14 20 C-14 19.34 -14 18.68 -14 18 C-14.66 18 -15.32 18 -16 18 C-17.85726616 14.28546768 -17.58501089 10.04420575 -17 6 C-12.15016515 -0.25373441 -7.55556215 -0.85753313 0 0 Z " fill="#363535" transform="translate(451,328)"/>
<path d="M0 0 C16.28947368 0 16.28947368 0 22.9375 5.375 C26.37665412 9.75210524 27.48976696 13.29697131 27.30859375 18.9453125 C26.66131245 23.25505886 24.79553767 26.56530888 21.38671875 29.2890625 C17.71830676 31.55030093 14.25979255 32.58441048 10 33 C10 34.98 10 36.96 10 39 C6.7 39 3.4 39 0 39 C0 26.13 0 13.26 0 0 Z M10 10 C10 14.29 10 18.58 10 23 C15.06008639 21.52360997 15.06008639 21.52360997 17 18 C16.83725462 14.74509242 16.46391841 13.43398819 14.0625 11.1875 C12.1077807 9.83367852 12.1077807 9.83367852 10 10 Z " fill="#373636" transform="translate(500,328)"/>
<path d="M0 0 C16.63120567 0 16.63120567 0 21.85546875 4.65234375 C25.85563298 9.14659002 27.38725475 12.6833417 27.2734375 18.875 C26.71357351 23.22594299 24.81248672 26.55176606 21.38671875 29.2890625 C17.71830676 31.55030093 14.25979255 32.58441048 10 33 C10 34.98 10 36.96 10 39 C6.7 39 3.4 39 0 39 C0 26.13 0 13.26 0 0 Z M10 10 C10 14.29 10 18.58 10 23 C15.06008639 21.52360997 15.06008639 21.52360997 17 18 C16.83725462 14.74509242 16.46391841 13.43398819 14.0625 11.1875 C12.1077807 9.83367852 12.1077807 9.83367852 10 10 Z " fill="#363536" transform="translate(2,328)"/>
<path d="M0 0 C-0.35956189 2.60682367 -0.84241747 3.8308961 -2.65625 5.77734375 C-5.8555031 7.44628745 -7.95115507 7.02238472 -11.5 6.5625 C-17.07044771 5.76356911 -17.07044771 5.76356911 -22 8 C-24.50031654 11.75047482 -24.53603554 13.55856266 -24 18 C-21.80710853 20.88208594 -20.09832691 22.54236379 -16.75 23.9375 C-13.97503834 24.00056731 -12.14590758 23.50785101 -9.5 22.75 C-7.16015625 22.1484375 -7.16015625 22.1484375 -5 22 C-1.9375 24.375 -1.9375 24.375 0 27 C-0.5 28.8125 -0.5 28.8125 -2 31 C-9.05183477 34.46405919 -15.71268249 35.29188076 -23.25 32.8125 C-29.24910066 30.24145686 -32.60457842 25.84757194 -35.26953125 20.0390625 C-36.98681035 15.24537431 -36.39431188 11.40572498 -34.375 6.875 C-30.93973211 0.68672997 -26.04524971 -2.5954594 -19.359375 -4.55859375 C-11.98269511 -5.93866797 -6.3531331 -3.58085684 0 0 Z " fill="#363536" transform="translate(105,333)"/>
<path d="M0 0 C3.63 0 7.26 0 11 0 C13.64 4.62 16.28 9.24 19 14 C21.31 9.38 23.62 4.76 26 0 C29.63 0 33.26 0 37 0 C34.87290926 6.66578753 32.39288344 13.07589214 29.625 19.5 C29.25117188 20.38558594 28.87734375 21.27117187 28.4921875 22.18359375 C25.99319025 28.0117346 23.16200678 33.50280094 20 39 C16.37 39 12.74 39 9 39 C9.81380208 36.88411458 10.62760417 34.76822917 11.44140625 32.65234375 C13.08547589 24.84588721 9.07955805 18.77594208 5.4375 12.1875 C4.41190298 10.30787424 3.38958956 8.42645184 2.37109375 6.54296875 C1.91661865 5.71821045 1.46214355 4.89345215 0.99389648 4.04370117 C0 2 0 2 0 0 Z " fill="#363536" transform="translate(325,328)"/>
<path d="M0 0 C3.63 0 7.26 0 11 0 C12.17176518 2.12232979 13.33754785 4.24757791 14.5 6.375 C14.83386719 6.97828125 15.16773438 7.5815625 15.51171875 8.203125 C18 12.7734375 18 12.7734375 18 15 C18.66 15 19.32 15 20 15 C20.11214844 14.28457031 20.22429687 13.56914062 20.33984375 12.83203125 C21.42847127 8.16188361 23.793663 4.24295577 26 0 C29.63 0 33.26 0 37 0 C34.62674298 7.76476775 31.3841173 14.9693477 27.9375 22.3125 C27.39544922 23.47845703 26.85339844 24.64441406 26.29492188 25.84570312 C24.24111587 30.2554201 22.17560064 34.64879872 20 39 C16.37 39 12.74 39 9 39 C9.81380208 36.8515625 10.62760417 34.703125 11.44140625 32.5546875 C13.02935628 25.29231463 8.81652113 19.45042227 5.4375 13.3125 C4.40978763 11.43663839 3.3873865 9.55785419 2.37109375 7.67578125 C1.6893811 6.4369519 1.6893811 6.4369519 0.99389648 5.1730957 C0 3 0 3 0 0 Z " fill="#363535" transform="translate(205,328)"/>
<path d="M0 0 C4.14581887 -0.02886751 8.29161216 -0.04675327 12.4375 -0.0625 C14.21350586 -0.07506836 14.21350586 -0.07506836 16.02539062 -0.08789062 C17.15009766 -0.09111328 18.27480469 -0.09433594 19.43359375 -0.09765625 C20.47572021 -0.10289307 21.51784668 -0.10812988 22.59155273 -0.11352539 C25 0 25 0 26 1 C26.07179964 2.51928038 26.08392007 4.04167482 26.0625 5.5625 C26.05347656 6.38878906 26.04445313 7.21507812 26.03515625 8.06640625 C26.02355469 8.70449219 26.01195312 9.34257812 26 10 C23.36 10 20.72 10 18 10 C18 19.57 18 29.14 18 39 C14.37 39 10.74 39 7 39 C7 29.43 7 19.86 7 10 C4.69 10 2.38 10 0 10 C-1.231394 6.30581799 -0.64432764 3.7943739 0 0 Z " fill="#363536" transform="translate(562,328)"/>
<path d="M0 0 C4.14581887 -0.02886751 8.29161216 -0.04675327 12.4375 -0.0625 C14.21350586 -0.07506836 14.21350586 -0.07506836 16.02539062 -0.08789062 C17.15009766 -0.09111328 18.27480469 -0.09433594 19.43359375 -0.09765625 C20.47572021 -0.10289307 21.51784668 -0.10812988 22.59155273 -0.11352539 C25 0 25 0 26 1 C26.1328125 2.8125 26.1328125 2.8125 26.125 5 C26.12886719 6.0828125 26.12886719 6.0828125 26.1328125 7.1875 C26 9 26 9 25 10 C22.66702567 10.04092937 20.33294775 10.04241723 18 10 C18.00785522 11.26444946 18.00785522 11.26444946 18.01586914 12.55444336 C18.03287826 15.67227936 18.04543406 18.79009177 18.05493164 21.90795898 C18.05997057 23.25920386 18.06680177 24.61044326 18.07543945 25.96166992 C18.08752419 27.90020434 18.09269828 29.838778 18.09765625 31.77734375 C18.10551147 33.52905884 18.10551147 33.52905884 18.11352539 35.31616211 C18 38 18 38 17 39 C13.7 39 10.4 39 7 39 C7 29.43 7 19.86 7 10 C4.69 10 2.38 10 0 10 C0 6.7 0 3.4 0 0 Z " fill="#373536" transform="translate(32,328)"/>
<path d="M0 0 C3.3 0 6.6 0 10 0 C10.33 9.57 10.66 19.14 11 29 C17.93 29.495 17.93 29.495 25 30 C25 32.97 25 35.94 25 39 C16.75 39 8.5 39 0 39 C0 26.13 0 13.26 0 0 Z " fill="#373637" transform="translate(391,328)"/>
<path d="M0 0 C0.33 0.66 0.66 1.32 1 2 C0.401875 2.226875 -0.19625 2.45375 -0.8125 2.6875 C-3.56085774 4.33651464 -4.39211876 6.27359268 -6 9 C-6.99 9.33 -7.98 9.66 -9 10 C-9 62.47 -9 114.94 -9 169 C-8.01 169 -7.02 169 -6 169 C-5.34 171.64 -4.68 174.28 -4 177 C-3.01 176.67 -2.02 176.34 -1 176 C-1 176.99 -1 177.98 -1 179 C0.32 179.33 1.64 179.66 3 180 C2.95875 180.7425 2.9175 181.485 2.875 182.25 C3.00398134 185.08758952 3.57051222 186.58773938 5 189 C0.13648169 184.44045158 -3.98221789 179.31177952 -8 174 C-9.03382403 172.64342112 -9.03382403 172.64342112 -10.0885334 171.25943661 C-12.25723999 167.56135386 -12.51438278 165.5018267 -12.54830933 161.25135803 C-12.56401936 160.27102408 -12.56401936 160.27102408 -12.58004677 159.27088541 C-12.60990251 157.09448212 -12.61145358 154.91902512 -12.61279297 152.74243164 C-12.62804563 151.17655362 -12.64490227 149.61069053 -12.66323853 148.04484558 C-12.70704208 143.80103538 -12.72471348 139.55751325 -12.73489141 135.31350255 C-12.74218693 132.66036217 -12.75467108 130.00729682 -12.7688942 127.3541851 C-12.81784698 118.09359304 -12.84398037 108.83322458 -12.85107422 99.57250977 C-12.85834896 90.94682782 -12.91817313 82.32256735 -13.00188339 73.69732004 C-13.07129617 66.28478731 -13.10217111 58.8727258 -13.10356629 51.45987028 C-13.10515143 47.03534021 -13.12260142 42.61225999 -13.17956161 38.18806648 C-13.23194461 34.02662872 -13.23633217 29.8678416 -13.20425034 25.70622444 C-13.20062269 24.182009 -13.21399442 22.65764078 -13.24588776 21.13375473 C-13.47203585 9.62383384 -13.47203585 9.62383384 -9.76382828 5.53323174 C-7.24149681 3.73712012 -4.80397087 2.30330374 -2 1 C-1.34 0.67 -0.68 0.34 0 0 Z " fill="#C9AB47" transform="translate(206,37)"/>
<path d="M0 0 C0.91604004 0.42442383 0.91604004 0.42442383 1.85058594 0.85742188 C2.34558594 2.34242188 2.34558594 2.34242188 2.85058594 3.85742188 C2.12871094 3.89867187 1.40683594 3.93992188 0.66308594 3.98242188 C-3.35768732 5.23332911 -4.56696293 7.57701098 -7.14941406 10.85742188 C-7.80941406 10.85742188 -8.46941406 10.85742188 -9.14941406 10.85742188 C-9.47941406 11.51742187 -9.80941406 12.17742187 -10.14941406 12.85742188 C-12.85729881 15.80423762 -15.56380476 18.1817261 -18.89941406 20.35742188 C-21.50840913 22.14014085 -22.04585608 22.54674792 -23.08691406 25.66992188 C-23.10753906 26.39179688 -23.12816406 27.11367187 -23.14941406 27.85742188 C-22.40691406 27.98117188 -21.66441406 28.10492188 -20.89941406 28.23242188 C-16.27972842 29.28235043 -12.51324196 31.49359398 -9.14941406 34.85742188 C-8.48941406 35.18742187 -7.82941406 35.51742187 -7.14941406 35.85742188 C-7.14941406 36.18742187 -7.14941406 36.51742187 -7.14941406 36.85742188 C-1.08890792 37.93866097 -1.08890792 37.93866097 4.85058594 36.85742188 C4.85058594 37.51742187 4.85058594 38.17742187 4.85058594 38.85742188 C6.83058594 38.36242187 6.83058594 38.36242187 8.85058594 37.85742188 C8.85058594 38.84742188 8.85058594 39.83742187 8.85058594 40.85742188 C9.51058594 40.85742188 10.17058594 40.85742188 10.85058594 40.85742188 C11.34558594 43.33242187 11.34558594 43.33242187 11.85058594 45.85742188 C12.69621094 45.56867188 13.54183594 45.27992188 14.41308594 44.98242188 C18.30600397 44.84086122 18.61764936 45.13621419 21.35058594 47.60742188 C21.929375 48.16171875 22.50816406 48.71601563 23.10449219 49.28710938 C25.43523157 51.38321056 27.99632372 52.60433114 30.85058594 53.85742188 C28.85058594 54.85742188 28.85058594 54.85742188 26.16772461 53.96459961 C25.04599854 53.49481689 23.92427246 53.02503418 22.76855469 52.54101562 C22.15853104 52.28747818 21.54850739 52.03394073 20.91999817 51.77272034 C19.61970558 51.23061211 18.32097195 50.68475209 17.02368164 50.13549805 C15.08697769 49.31561956 13.14616043 48.50631783 11.20410156 47.69921875 C3.99486144 44.68858292 -3.11932042 41.51516005 -10.20043945 38.2121582 C-14.24306377 36.35500758 -18.337727 34.64876008 -22.46191406 32.98242188 C-23.21408203 32.675625 -23.96625 32.36882812 -24.74121094 32.05273438 C-26.54286303 31.31830295 -28.34596889 30.5874392 -30.14941406 29.85742188 C-30.14941406 28.53742188 -30.14941406 27.21742188 -30.14941406 25.85742188 C-29.51003906 25.58929688 -28.87066406 25.32117188 -28.21191406 25.04492188 C-25.8180972 23.97074435 -25.8180972 23.97074435 -25.14941406 20.85742188 C-23.82910156 19.52539062 -23.82910156 19.52539062 -22.02441406 18.04492188 C-19.04582811 15.54832528 -16.20341756 12.96478559 -13.42285156 10.25195312 C-12.76172363 9.61298096 -12.1005957 8.97400879 -11.41943359 8.31567383 C-10.08047064 7.0176533 -8.75054411 5.71024127 -7.43017578 4.39331055 C-6.80643066 3.79365479 -6.18268555 3.19399902 -5.54003906 2.57617188 C-4.98348633 2.02896484 -4.42693359 1.48175781 -3.85351562 0.91796875 C-2.14941406 -0.14257812 -2.14941406 -0.14257812 0 0 Z " fill="#A18234" transform="translate(320.1494140625,155.142578125)"/>
<path d="M0 0 C10.14220948 1.30867219 18.83044451 5.70489231 28 10 C27.25545497 13.42158056 26.56489231 14.7250226 23.8125 16.9375 C19.74491425 20.33081928 15.8642897 23.87979775 12 27.5 C7.58311526 31.62441852 3.14288154 35.70254485 -1.44921875 39.6328125 C-3.03329094 41.02934969 -4.52278347 42.49154324 -6 44 C-6.66 43.67 -7.32 43.34 -8 43 C-7.2884375 42.4121875 -7.2884375 42.4121875 -6.5625 41.8125 C-4.64820367 39.59191626 -4.38733012 37.86624291 -4 35 C-3.34 35 -2.68 35 -2 35 C-2 34.34 -2 33.68 -2 33 C-1.01 32.505 -1.01 32.505 0 32 C0 30.68 0 29.36 0 28 C0.66 28 1.32 28 2 28 C2 28.99 2 29.98 2 31 C2.99 31 3.98 31 5 31 C6.85776765 27.86501708 7.20140476 25.62528568 7 22 C7.66 22 8.32 22 9 22 C9 22.66 9 23.32 9 24 C9.66 24 10.32 24 11 24 C11.33 22.68 11.66 21.36 12 20 C12.66 20.33 13.32 20.66 14 21 C14.33 18.69 14.66 16.38 15 14 C14.01 14.33 13.02 14.66 12 15 C12 14.34 12 13.68 12 13 C12.99 13 13.98 13 15 13 C15 12.34 15 11.68 15 11 C13.700625 10.855625 12.40125 10.71125 11.0625 10.5625 C7.125 10.125 7.125 10.125 6 9 C5.95919217 7.00041636 5.95745644 4.99954746 6 3 C4.35 3 2.7 3 1 3 C0.67 2.01 0.34 1.02 0 0 Z " fill="#A38539" transform="translate(339,69)"/>
<path d="M0 0 C0.05802751 4.58328022 0.09360593 9.16646604 0.125 13.75 C0.14175781 15.05195312 0.15851563 16.35390625 0.17578125 17.6953125 C0.18222656 18.94570312 0.18867188 20.19609375 0.1953125 21.484375 C0.20578613 22.63647461 0.21625977 23.78857422 0.22705078 24.97558594 C0 28 0 28 -2 32 C-2.495 19.625 -2.495 19.625 -3 7 C-6.18354482 7.68845198 -6.18354482 7.68845198 -7.375 10.4375 C-9 13 -9 13 -11.5625 14 C-12.366875 14.33 -13.17125 14.66 -14 15 C-14.495 16.2375 -14.495 16.2375 -15 17.5 C-16 20 -16 20 -18.1875 21.0625 C-19.5796875 21.5265625 -19.5796875 21.5265625 -21 22 C-23.3759725 23.26685671 -25.67832754 24.63431032 -28 26 C-28 23 -28 23 -26.78173828 21.51708984 C-26.21696777 21.00355957 -25.65219727 20.4900293 -25.0703125 19.9609375 C-24.44415039 19.38424316 -23.81798828 18.80754883 -23.17285156 18.21337891 C-22.49706055 17.60671387 -21.82126953 17.00004883 -21.125 16.375 C-20.44405273 15.75415527 -19.76310547 15.13331055 -19.06152344 14.49365234 C-17.68819822 13.2431422 -16.31191534 11.99587208 -14.93261719 10.75195312 C-13.23247112 9.21073936 -11.55280449 7.65183515 -9.8828125 6.078125 C-8.57957031 4.86382812 -8.57957031 4.86382812 -7.25 3.625 C-6.49203125 2.91601562 -5.7340625 2.20703125 -4.953125 1.4765625 C-3 0 -3 0 0 0 Z " fill="#9B823F" transform="translate(368,90)"/>
<path d="M0 0 C4.37873906 0.6927056 8.31914243 2.18912793 12.40625 3.84375 C13.47690956 4.27171623 13.47690956 4.27171623 14.56919861 4.70832825 C16.88131832 5.6343444 19.19071462 6.56694063 21.5 7.5 C23.08597078 8.13708265 24.67198984 8.77404512 26.25805664 9.41088867 C35.88066412 13.28455991 45.46277227 17.24145709 54.95703125 21.421875 C55.71242188 21.75316406 56.4678125 22.08445313 57.24609375 22.42578125 C57.88216553 22.70848877 58.5182373 22.99119629 59.17358398 23.2824707 C61.09205849 24.03616628 62.9919562 24.54318462 65 25 C65 25.66 65 26.32 65 27 C59.63904723 25.41078475 54.29156027 23.81027062 49 22 C49 21.34 49 20.68 49 20 C48.13375 20.04125 47.2675 20.0825 46.375 20.125 C43 20 43 20 40 18.9375 C36.56759692 17.86487404 34.45878373 18.17648006 31 19 C30.67 18.34 30.34 17.68 30 17 C29.34 17.66 28.68 18.32 28 19 C27.34 18.67 26.68 18.34 26 18 C25.375 14.9375 25.375 14.9375 25 12 C23.7625 11.649375 22.525 11.29875 21.25 10.9375 C20.55390625 10.74027344 19.8578125 10.54304687 19.140625 10.33984375 C16.78041204 9.96513841 15.25580949 10.27346676 13 11 C13 10.01 13 9.02 13 8 C10.31767339 6.21178226 7.69711039 4.79857396 4.8125 3.375 C3.91144531 2.92898437 3.01039063 2.48296875 2.08203125 2.0234375 C1.39496094 1.68570313 0.70789063 1.34796875 0 1 C0 0.67 0 0.34 0 0 Z " fill="#C6B061" transform="translate(351,157)"/>
<path d="M0 0 C4.85117821 1.27274257 9.15102198 2.87443819 13.6875 5.0625 C14.98889978 5.68372568 16.29102548 6.30343215 17.59375 6.921875 C18.29242188 7.25380859 18.99109375 7.58574219 19.7109375 7.92773438 C24.8750077 10.34673996 30.0913079 12.65245794 35.29760742 14.97875977 C36.11076416 15.34283936 36.9239209 15.70691895 37.76171875 16.08203125 C38.48319092 16.40405518 39.20466309 16.7260791 39.94799805 17.05786133 C41.98918266 17.99503342 43.99704461 18.98400813 46 20 C45.75 21.875 45.75 21.875 45 24 C43.67532254 24.6837045 42.34136367 25.34964186 41 26 C40.30062468 27.31647119 39.63270867 28.65022151 39 30 C38.01 30.66 37.02 31.32 36 32 C36.33 30.68 36.66 29.36 37 28 C37.66 28 38.32 28 39 28 C39 27.34 39 26.68 39 26 C38.01 25.67 37.02 25.34 36 25 C36.33 22.69 36.66 20.38 37 18 C36.278125 18.0825 35.55625 18.165 34.8125 18.25 C32 18 32 18 29.75 16.1875 C26.13534833 13.3122089 22.39282556 12.26329624 18 11 C18 10.34 18 9.68 18 9 C15.69 9 13.38 9 11 9 C11 8.01 11 7.02 11 6 C10.484375 5.896875 9.96875 5.79375 9.4375 5.6875 C6.13973565 4.75736134 3.13366668 3.38604488 0 2 C0 1.34 0 0.68 0 0 Z " fill="#C7AB44" transform="translate(285,203)"/>
<path d="M0 0 C0.33 0 0.66 0 1 0 C1.32777 15.21172229 1.57426906 30.42328153 1.72537041 45.63774681 C1.79741345 52.70322422 1.89552376 59.7665018 2.05615234 66.83056641 C2.21118548 73.65183834 2.29204193 80.4708276 2.3282814 87.29375076 C2.35409482 89.892726 2.40450861 92.4915801 2.48022079 95.08958054 C3.03783822 115.02165758 3.03783822 115.02165758 -0.44094086 120.10596466 C-4.11652657 123.78640125 -8.22533996 126.02690051 -13 128 C-13.33 127.01 -13.66 126.02 -14 125 C-13.34 125 -12.68 125 -12 125 C-12 124.34 -12 123.68 -12 123 C-10.68 123 -9.36 123 -8 123 C-8 121.35 -8 119.7 -8 118 C-6.35 118.33 -4.7 118.66 -3 119 C-2.855625 118.401875 -2.71125 117.80375 -2.5625 117.1875 C-2.1127561 115.43849596 -1.57107659 113.71322977 -1 112 C-0.89950496 110.46480928 -0.85384097 108.92571251 -0.84178162 107.38728333 C-0.8319928 106.44077408 -0.82220398 105.49426483 -0.81211853 104.51907349 C-0.80636307 103.4825766 -0.8006076 102.44607971 -0.79467773 101.37817383 C-0.78477814 100.28533585 -0.77487854 99.19249786 -0.76467896 98.06654358 C-0.73303832 94.44672833 -0.7082963 90.82689995 -0.68359375 87.20703125 C-0.66302644 84.70024775 -0.64203003 82.19346774 -0.62062073 79.68669128 C-0.57102649 73.75818242 -0.52576711 67.82965045 -0.48259836 61.90109223 C-0.42836508 54.48936367 -0.36741836 47.07769291 -0.30664062 39.66601562 C-0.19903091 26.44404973 -0.09740558 13.22204481 0 0 Z " fill="#C0AC55" transform="translate(467,103)"/>
<path d="M0 0 C0.66 0.33 1.32 0.66 2 1 C2 1.33 2 1.66 2 2 C8.06050614 3.0812391 8.06050614 3.0812391 14 2 C14 2.66 14 3.32 14 4 C15.32 3.67 16.64 3.34 18 3 C18 3.99 18 4.98 18 6 C18.66 6 19.32 6 20 6 C20.33 7.65 20.66 9.3 21 11 C21.845625 10.71125 22.69125 10.4225 23.5625 10.125 C27.45541803 9.98343934 27.76706342 10.27879231 30.5 12.75 C31.36818359 13.58144531 31.36818359 13.58144531 32.25390625 14.4296875 C34.58464563 16.52578869 37.14573778 17.74690927 40 19 C39.01 19.495 39.01 19.495 38 20 C35.91806679 19.30308882 33.87205552 18.49810725 31.84765625 17.6484375 C31.23288925 17.39252838 30.61812225 17.13661926 29.98472595 16.87295532 C28.00753265 16.04753587 26.03513942 15.21123543 24.0625 14.375 C22.76785971 13.83396113 21.47294052 13.29358911 20.17773438 12.75390625 C12.72376716 9.63634753 5.33133848 6.39719366 -2 3 C-1.34 2.01 -0.68 1.02 0 0 Z " fill="#B49848" transform="translate(311,190)"/>
<path d="M0 0 C3.02805726 5.40724511 4.30134946 10.82233616 4 17 C4.66 17 5.32 17 6 17 C6 17.66 6 18.32 6 19 C2.33827525 18.37321829 -0.8818995 17.35548154 -4.3125 15.9375 C-5.63701172 15.39416016 -5.63701172 15.39416016 -6.98828125 14.83984375 C-7.65214844 14.56269531 -8.31601562 14.28554687 -9 14 C-9.109375 11.609375 -9.109375 11.609375 -9 9 C-6.57917355 6.57917355 -4.34489996 5.59730356 -1 5 C-0.67 3.35 -0.34 1.7 0 0 Z " fill="#AC892C" transform="translate(427,226)"/>
<path d="M0 0 C2.77378211 3.02594412 3.65069482 5.95594498 4.53125 9.92578125 C4.95599753 11.80528908 5.50276975 13.65618271 6.0625 15.5 C6.78896697 18.21214335 7.24766703 20.61037296 7.5625 23.375 C7.59793141 26.8036937 7.59793141 26.8036937 9 28 C8.95875 28.94875 8.9175 29.8975 8.875 30.875 C8.69037283 33.99284776 8.69037283 33.99284776 10.5 35.875 C10.995 36.24625 11.49 36.6175 12 37 C12 36.34 12 35.68 12 35 C12.66 35.33 13.32 35.66 14 36 C13.71848913 37.31471568 13.42446661 38.62675767 13.125 39.9375 C12.96257812 40.66839844 12.80015625 41.39929688 12.6328125 42.15234375 C12 44 12 44 10 45 C9.71125 43.88625 9.4225 42.7725 9.125 41.625 C8.30758671 37.99708908 8.30758671 37.99708908 6 36 C5.7265625 33.48828125 5.7265625 33.48828125 5.625 30.3125 C5.22553076 23.63988416 3.74612439 17.79893538 1.921875 11.4140625 C0.88561423 7.57638491 0.32266874 3.95269209 0 0 Z " fill="#BC9732" transform="translate(234,37)"/>
<path d="M0 0 C4.6889493 0.55619669 8.19924267 1.88182673 12.375 4.0625 C13.43460938 4.61035156 14.49421875 5.15820312 15.5859375 5.72265625 C16.38257813 6.14417969 17.17921875 6.56570312 18 7 C17.01 8.485 17.01 8.485 16 10 C13.5625 9.625 13.5625 9.625 11 9 C10.67 8.34 10.34 7.68 10 7 C9.67 7.33 9.34 7.66 9 8 C7.00041636 8.04080783 4.99954746 8.04254356 3 8 C3.33 9.98 3.66 11.96 4 14 C3.34 13.67 2.68 13.34 2 13 C1.3671875 11.07421875 1.3671875 11.07421875 0.875 8.6875 C0.70742187 7.90761719 0.53984375 7.12773437 0.3671875 6.32421875 C0 4 0 4 0 0 Z " fill="#A8852D" transform="translate(231,22)"/>
<path d="M0 0 C0.99 0 1.98 0 3 0 C3.5020992 2.76154558 3.29476636 4.49541731 1.875 6.92578125 C-1.02058831 10.68853793 -1.02058831 10.68853793 -3 12 C-8.68238552 11.87046234 -14.05001721 9.17920769 -19.25 7.0625 C-20.16007812 6.70220703 -21.07015625 6.34191406 -22.0078125 5.97070312 C-28.74192547 3.25807453 -28.74192547 3.25807453 -31 1 C-28.09139455 1.47349391 -25.19720809 1.95872389 -22.3125 2.5625 C-19.90096843 3.09294583 -19.90096843 3.09294583 -17 3 C-16.67 3.99 -16.34 4.98 -16 6 C-13.43957934 7.03038956 -13.43957934 7.03038956 -10.4375 7.6875 C-9.42558594 7.93886719 -8.41367187 8.19023438 -7.37109375 8.44921875 C-6.58863281 8.63097656 -5.80617188 8.81273438 -5 9 C-3.05731159 6.08596738 -1.53604696 3.14191424 0 0 Z " fill="#B7943C" transform="translate(332,104)"/>
<path d="M0 0 C5.94 2.475 5.94 2.475 12 5 C12 5.66 12 6.32 12 7 C11.01 7.66 10.02 8.32 9 9 C8.67 9.99 8.34 10.98 8 12 C7.21625 11.95875 6.4325 11.9175 5.625 11.875 C2.83883881 11.71271266 2.83883881 11.71271266 1 14 C1 12.02 1 10.04 1 8 C0.01 8.33 -0.98 8.66 -2 9 C-2 8.34 -2 7.68 -2 7 C-1.01 6.67 -0.02 6.34 1 6 C1.33 5.34 1.66 4.68 2 4 C1.01 3.67 0.02 3.34 -1 3 C-0.67 2.01 -0.34 1.02 0 0 Z " fill="#A8822B" transform="translate(353,75)"/>
<path d="M0 0 C8.36980236 2.19851951 16.11827559 5.49070196 24 9 C21.01786685 9.99404438 19.55541462 10.05554146 16.5 9.75 C15.7265625 9.68296875 14.953125 9.6159375 14.15625 9.546875 C11.59783731 8.89800222 10.7388302 7.93148469 9 6 C6.06018976 4.60359014 4.27763744 4 1 4 C1 4.99 1 5.98 1 7 C-1.375 7.625 -1.375 7.625 -4 8 C-4.66 7.34 -5.32 6.68 -6 6 C-4.02 4.02 -2.04 2.04 0 0 Z " fill="#B19547" transform="translate(327,147)"/>
<path d="M0 0 C8.57142857 -0.14285714 8.57142857 -0.14285714 12 1 C12 1.66 12 2.32 12 3 C13.11375 2.484375 14.2275 1.96875 15.375 1.4375 C16.57125 0.963125 17.7675 0.48875 19 0 C19.66 0.33 20.32 0.66 21 1 C20.67 1.99 20.34 2.98 20 4 C20.39397335 6.63804589 20.39397335 6.63804589 21 9 C13.63011293 7.033631 6.86954798 4.30417422 0 1 C0 0.67 0 0.34 0 0 Z " fill="#CEBA61" transform="translate(260,88)"/>
<path d="M0 0 C5.67276511 -0.29341888 8.99067246 -0.00559652 14 3 C13.75 4.875 13.75 4.875 13 7 C11.67532254 7.6837045 10.34136367 8.34964186 9 9 C8.30062468 10.31647119 7.63270867 11.65022151 7 13 C6.01 13.66 5.02 14.32 4 15 C4.33 13.68 4.66 12.36 5 11 C5.66 11 6.32 11 7 11 C7 10.34 7 9.68 7 9 C6.01 8.67 5.02 8.34 4 8 C4.33 5.69 4.66 3.38 5 1 C3.35 1 1.7 1 0 1 C0 0.67 0 0.34 0 0 Z " fill="#D4AC2A" transform="translate(317,220)"/>
<path d="M0 0 C3.37462715 0.54723683 5.08235 1.0549 8 3 C10.02919843 2.74276031 10.02919843 2.74276031 12 2 C12.99 1.67 13.98 1.34 15 1 C14.67 2.65 14.34 4.3 14 6 C17.13498292 7.85776765 19.37471432 8.20140476 23 8 C22.67 9.32 22.34 10.64 22 12 C16.01960624 10.17265746 10.4954525 7.98665897 5 5 C4.01 4.46375 3.02 3.9275 2 3.375 C1.34 2.92125 0.68 2.4675 0 2 C0 1.34 0 0.68 0 0 Z " fill="#C6B667" transform="translate(370,216)"/>
<path d="M0 0 C7.24268188 1.9806198 14.01832844 4.57977338 20.875 7.625 C22.7045167 8.43244033 24.53520287 9.23723734 26.3671875 10.0390625 C27.16237793 10.39178223 27.95756836 10.74450195 28.77685547 11.10791016 C30.84113973 11.93625352 32.83109599 12.52139229 35 13 C35 13.66 35 14.32 35 15 C29.63904723 13.41078475 24.29156027 11.81027062 19 10 C19 9.34 19 8.68 19 8 C18.0925 8.061875 17.185 8.12375 16.25 8.1875 C12.48328452 7.97018949 11.89749957 7.23521396 9 5 C6.04278659 3.85825848 3.0344388 2.91422195 0 2 C0 1.34 0 0.68 0 0 Z " fill="#B6A766" transform="translate(381,169)"/>
<path d="M0 0 C7.18216433 2.27435204 14.0758202 5.03584181 21 8 C20.67 8.66 20.34 9.32 20 10 C13.23076923 10.15384615 13.23076923 10.15384615 10 9 C8 7 8 7 7 5 C6.34 5 5.68 5 5 5 C5 4.34 5 3.68 5 3 C3.02 3 1.04 3 -1 3 C-0.67 2.01 -0.34 1.02 0 0 Z " fill="#CCB963" transform="translate(267,37)"/>
<path d="M0 0 C1.78515625 0.9453125 1.78515625 0.9453125 2.78515625 3.9453125 C1.70234375 4.0071875 1.70234375 4.0071875 0.59765625 4.0703125 C-3.423117 5.32121973 -4.63239262 7.6649016 -7.21484375 10.9453125 C-7.87484375 10.9453125 -8.53484375 10.9453125 -9.21484375 10.9453125 C-9.54484375 11.6053125 -9.87484375 12.2653125 -10.21484375 12.9453125 C-13.27734375 13.5703125 -13.27734375 13.5703125 -16.21484375 13.9453125 C-15.11653163 12.84700038 -14.01634127 11.75053862 -12.91015625 10.66015625 C-11.58796879 9.32273622 -10.29721961 7.95421312 -9.01953125 6.57421875 C-8.23835938 5.74792969 -7.4571875 4.92164063 -6.65234375 4.0703125 C-5.90855469 3.26851562 -5.16476562 2.46671875 -4.3984375 1.640625 C-2.21484375 -0.0546875 -2.21484375 -0.0546875 0 0 Z " fill="#A38B48" transform="translate(320.21484375,155.0546875)"/>
<path d="M0 0 C1 3 1 3 1 5 C1.33 5.66 1.66 6.32 2 7 C-3.85659906 5.33846988 -9.4590134 3.52958084 -15 1 C-15 0.67 -15 0.34 -15 0 C-10.12731865 -1.14651326 -4.76365533 -1.94074847 0 0 Z " fill="#CCAE39" transform="translate(264,243)"/>
<path d="M0 0 C0.33 0 0.66 0 1 0 C1.89301414 4.91866521 2.20029333 9.1181347 1 14 C-2.70923386 18.43948104 -8.00262539 21.2335962 -13 24 C-13.33 23.01 -13.66 22.02 -14 21 C-13.34 21 -12.68 21 -12 21 C-12 20.34 -12 19.68 -12 19 C-10.68 19 -9.36 19 -8 19 C-8 17.35 -8 15.7 -8 14 C-6.35 14.33 -4.7 14.66 -3 15 C-2.14742393 11.77403651 -1.5239577 8.53416312 -0.9375 5.25 C-0.76089844 4.26515625 -0.58429688 3.2803125 -0.40234375 2.265625 C-0.26957031 1.51796875 -0.13679688 0.7703125 0 0 Z " fill="#C7AF3D" transform="translate(467,207)"/>
<path d="M0 0 C0 0.66 0 1.32 0 2 C0.66 2 1.32 2 2 2 C2.33 1.34 2.66 0.68 3 0 C5.9375 1.3125 5.9375 1.3125 9 3 C9.33 3.99 9.66 4.98 10 6 C10.66 6.33 11.32 6.66 12 7 C12 7.66 12 8.32 12 9 C5.54646385 6.94235079 -0.7361263 4.57616518 -7 2 C-7 1.67 -7 1.34 -7 1 C-2.25 0 -2.25 0 0 0 Z " fill="#C5AE60" transform="translate(288,96)"/>
<path d="M0 0 C0.66 0.33 1.32 0.66 2 1 C-1.20812686 7.66303271 -1.20812686 7.66303271 -4.9375 9.25 C-6.4534375 9.62125 -6.4534375 9.62125 -8 10 C-9.69207001 10.9563874 -11.36816893 11.94410931 -13 13 C-13 10 -13 10 -11.64453125 8.5 C-8.22252449 5.69818636 -4.87534636 3.16563473 -1 1 C-0.67 0.67 -0.34 0.34 0 0 Z " fill="#AF8E40" transform="translate(353,103)"/>
<path d="M0 0 C0.66 0 1.32 0 2 0 C2 0.99 2 1.98 2 3 C2.99 3.33 3.98 3.66 5 4 C2.47295673 9.21202675 -1.61773359 12.3880132 -6 16 C-6.66 15.67 -7.32 15.34 -8 15 C-7.525625 14.608125 -7.05125 14.21625 -6.5625 13.8125 C-4.64820367 11.59191626 -4.38733012 9.86624291 -4 7 C-3.34 7 -2.68 7 -2 7 C-2 6.34 -2 5.68 -2 5 C-1.34 4.67 -0.68 4.34 0 4 C0 2.68 0 1.36 0 0 Z " fill="#AB8E3E" transform="translate(339,97)"/>
<path d="M0 0 C1.32 0 2.64 0 4 0 C4 0.66 4 1.32 4 2 C5.051875 2.185625 5.051875 2.185625 6.125 2.375 C9.17656387 3.03838345 12.05340938 3.97211955 15 5 C11.696686 5.88935377 8.37705625 6.46274105 5 7 C4.67 6.34 4.34 5.68 4 5 C3.34 5.66 2.68 6.32 2 7 C1.34 6.67 0.68 6.34 0 6 C0 4.02 0 2.04 0 0 Z " fill="#D3BC62" transform="translate(377,169)"/>
<path d="M0 0 C2.58653115 0.92934666 5.16898256 1.86806196 7.75 2.8125 C8.47960937 3.07353516 9.20921875 3.33457031 9.9609375 3.60351562 C10.66992188 3.86455078 11.37890625 4.12558594 12.109375 4.39453125 C12.75874023 4.63018799 13.40810547 4.86584473 14.07714844 5.10864258 C16 6 16 6 20 9 C16.37 9 12.74 9 9 9 C9 8.01 9 7.02 9 6 C8.01 6 7.02 6 6 6 C6 5.34 6 4.68 6 4 C4.35 3.67 2.7 3.34 1 3 C0.67 2.01 0.34 1.02 0 0 Z " fill="#AD9552" transform="translate(324,61)"/>
<path d="M0 0 C4.21878192 -0.19622241 7.17010894 0.19769832 11 2 C11 2.33 11 2.66 11 3 C13.31 3 15.62 3 18 3 C18.33 3.66 18.66 4.32 19 5 C18.67 5.66 18.34 6.32 18 7 C18.66 7 19.32 7 20 7 C20 7.66 20 8.32 20 9 C13.06001352 6.83836487 6.56882431 4.1063786 0 1 C0 0.67 0 0.34 0 0 Z " fill="#CCAA3A" transform="translate(377,63)"/>
<path d="M0 0 C2.77341121 3.0255395 3.65372685 5.95412796 4.52734375 9.92578125 C4.95678571 11.81035714 5.53351927 13.65983772 6.125 15.5 C7.13485505 19.53942021 7.14552102 22.85265087 7 27 C2.60195677 19.19002189 0.72419612 8.87140241 0 0 Z " fill="#B48E26" transform="translate(234,37)"/>
<path d="M0 0 C4.38332057 0.82187261 8.67940177 1.90154282 13 3 C13 3.66 13 4.32 13 5 C15.64 5.33 18.28 5.66 21 6 C21.66 4.68 22.32 3.36 23 2 C23 4.31 23 6.62 23 9 C17.62259304 8.43432472 13.11266608 7.11769442 8.125 5.0625 C7.44953125 4.79759766 6.7740625 4.53269531 6.078125 4.25976562 C1.12853505 2.25707009 1.12853505 2.25707009 0 0 Z " fill="#AA9249" transform="translate(344,146)"/>
<path d="M0 0 C0.78503906 0.26296875 1.57007813 0.5259375 2.37890625 0.796875 C3.16136719 1.04953125 3.94382813 1.3021875 4.75 1.5625 C7.03379624 2.58837638 8.30672871 3.67566856 9.94140625 5.546875 C8.12890625 6.609375 8.12890625 6.609375 5.94140625 7.546875 C4.95140625 7.216875 3.96140625 6.886875 2.94140625 6.546875 C2.61140625 5.886875 2.28140625 5.226875 1.94140625 4.546875 C0.95140625 4.546875 -0.03859375 4.546875 -1.05859375 4.546875 C-1.05859375 3.556875 -1.05859375 2.566875 -1.05859375 1.546875 C-2.04859375 1.216875 -3.03859375 0.886875 -4.05859375 0.546875 C-2.05859375 -0.453125 -2.05859375 -0.453125 0 0 Z " fill="#AA9040" transform="translate(239.05859375,24.453125)"/>
<path d="M0 0 C0.33 0 0.66 0 1 0 C1.7003953 2.7264315 2.3855775 5.45523527 3.0625 8.1875 C3.26166016 8.95642578 3.46082031 9.72535156 3.66601562 10.51757812 C4.68159871 14.66899672 5.3373939 17.80277007 4 22 C3.01 21.67 2.02 21.34 1 21 C1.03255208 19.01432292 1.06510417 17.02864583 1.09765625 15.04296875 C1.08263217 12.79694539 1.08263217 12.79694539 0 10 C-0.06802967 8.27204648 -0.08495645 6.54164635 -0.0625 4.8125 C-0.05347656 3.91144531 -0.04445313 3.01039063 -0.03515625 2.08203125 C-0.02355469 1.39496094 -0.01195312 0.70789063 0 0 Z " fill="#B7922D" transform="translate(418,187)"/>
<path d="M0 0 C0.66 0.33 1.32 0.66 2 1 C2 1.33 2 1.66 2 2 C2.94875 2.28875 3.8975 2.5775 4.875 2.875 C8 4 8 4 10 6 C12.65537372 6.56520003 15.29144713 6.73788198 18 7 C18.33 8.32 18.66 9.64 19 11 C11.63011293 9.033631 4.86954798 6.30417422 -2 3 C-1.34 2.01 -0.68 1.02 0 0 Z " fill="#A58D43" transform="translate(311,190)"/>
<path d="M0 0 C1.95216435 3.90432869 2.50639991 6.72213252 3 11 C5.91517292 9.92598892 7.77810176 9.22189824 10 7 C10 8.65 10 10.3 10 12 C6.7 12 3.4 12 0 12 C0 8.04 0 4.08 0 0 Z M6 6 C6.33 6.66 6.66 7.32 7 8 C5.68 8.33 4.36 8.66 3 9 C3 8.34 3 7.68 3 7 C3.99 6.67 4.98 6.34 6 6 Z " fill="#3C3C3C" transform="translate(164,355)"/>
<path d="M0 0 C-2.62357361 1.81457155 -5.24909753 3.6263006 -7.875 5.4375 C-8.62136719 5.95376953 -9.36773437 6.47003906 -10.13671875 7.00195312 C-11.20986328 7.74155273 -11.20986328 7.74155273 -12.3046875 8.49609375 C-12.96452637 8.95169678 -13.62436523 9.4072998 -14.30419922 9.87670898 C-16 11 -16 11 -18 12 C-18 11.34 -18 10.68 -18 10 C-18.66 10 -19.32 10 -20 10 C-19.67 9.34 -19.34 8.68 -19 8 C-17.35 8 -15.7 8 -14 8 C-14 7.34 -14 6.68 -14 6 C-13.01 6 -12.02 6 -11 6 C-10.67 5.01 -10.34 4.02 -10 3 C-9.01 3 -8.02 3 -7 3 C-6.67 2.01 -6.34 1.02 -6 0 C-3 -1 -3 -1 0 0 Z " fill="#C6AC3F" transform="translate(451,233)"/>
<path d="M0 0 C2.90860545 0.47349391 5.80279191 0.95872389 8.6875 1.5625 C11.09903157 2.09294583 11.09903157 2.09294583 14 2 C14.33 2.99 14.66 3.98 15 5 C18.00847418 6.22520264 18.00847418 6.22520264 21 7 C21 7.66 21 8.32 21 9 C13.81783567 6.72564796 6.9241798 3.96415819 0 1 C0 0.67 0 0.34 0 0 Z " fill="#AF9C57" transform="translate(301,105)"/>
<path d="M0 0 C3.0901005 0.51501675 6.1734132 1.03334869 9.25 1.625 C11.95552088 2.25722358 11.95552088 2.25722358 14 1 C14.99 1.99 15.98 2.98 17 4 C16.67 4.99 16.34 5.98 16 7 C10.53262809 5.25192871 5.24175152 3.34205919 0 1 C0 0.67 0 0.34 0 0 Z " fill="#B09750" transform="translate(402,232)"/>
<path d="M0 0 C0.99 0.33 1.98 0.66 3 1 C0.36 3.64 -2.28 6.28 -5 9 C-11.93359375 6.8515625 -11.93359375 6.8515625 -14 6 C-14.33 5.34 -14.66 4.68 -15 4 C-13.35 4 -11.7 4 -10 4 C-10 4.66 -10 5.32 -10 6 C-8.35 6.33 -6.7 6.66 -5 7 C-4.34 5.35 -3.68 3.7 -3 2 C-2.01 2 -1.02 2 0 2 C0 1.34 0 0.68 0 0 Z " fill="#C2AB44" transform="translate(299,253)"/>
<path d="M0 0 C7.66795502 2.33937611 14.77137274 5.54768806 22 9 C19 10 19 10 16.94921875 9.2578125 C16.20285156 8.88398438 15.45648438 8.51015625 14.6875 8.125 C11.08929515 6.4138016 7.95626042 5.57896494 4 5 C2 3 2 3 0 0 Z " fill="#C3AA48" transform="translate(258,191)"/>
<path d="M0 0 C4.36119513 0.67415421 8.22471288 2.19627103 12.25 3.9375 C13.20519531 4.33485352 13.20519531 4.33485352 14.1796875 4.74023438 C18.8770523 6.7541046 18.8770523 6.7541046 20 9 C17.6646198 8.34000125 15.33205252 7.67159816 13 7 C12.14664062 6.75894531 11.29328125 6.51789062 10.4140625 6.26953125 C9.09535156 5.88861328 9.09535156 5.88861328 7.75 5.5 C6.91984375 5.2628125 6.0896875 5.025625 5.234375 4.78125 C3 4 3 4 0 2 C0 1.34 0 0.68 0 0 Z " fill="#C5AC4B" transform="translate(427,29)"/>
<path d="M0 0 C5.75 1.875 5.75 1.875 8 3 C7.75 4.875 7.75 4.875 7 7 C5 8.125 5 8.125 3 9 C2.67 9.66 2.34 10.32 2 11 C1.67 8.69 1.34 6.38 1 4 C2.98 4.495 2.98 4.495 5 5 C4.360625 4.731875 3.72125 4.46375 3.0625 4.1875 C1 3 1 3 0 0 Z " fill="#CAAC39" transform="translate(323,220)"/>
<path d="M0 0 C0.33 0 0.66 0 1 0 C1.20367187 0.92039063 1.40734375 1.84078125 1.6171875 2.7890625 C3.39501117 6.91722933 5.08187187 7.56849594 9.125 9.375 C10.22070312 9.87773437 11.31640625 10.38046875 12.4453125 10.8984375 C13.28835938 11.26195312 14.13140625 11.62546875 15 12 C11.01508155 13.32830615 9.59951452 12.23204404 5.8125 10.5625 C4.18248047 9.85287109 4.18248047 9.85287109 2.51953125 9.12890625 C1.68808594 8.75636719 0.85664063 8.38382813 0 8 C0 5.36 0 2.72 0 0 Z " fill="#B39F57" transform="translate(328,133)"/>
<path d="M0 0 C6.20477864 1.93624298 12.10825719 4.25609141 18 7 C14.14637314 8.13104352 12.69850894 7.64378175 9 6 C7.40031824 5.44522821 5.7957674 4.90436701 4.1875 4.375 C3.39730469 4.11460938 2.60710937 3.85421875 1.79296875 3.5859375 C1.20128906 3.39257812 0.60960937 3.19921875 0 3 C0 2.01 0 1.02 0 0 Z " fill="#B4A15E" transform="translate(249,29)"/>
<path d="M0 0 C2.31 0.33 4.62 0.66 7 1 C7 1.66 7 2.32 7 3 C8.65 2.67 10.3 2.34 12 2 C12.66 3.65 13.32 5.3 14 7 C9.0276578 5.50829734 4.58154261 3.39542583 0 1 C0 0.67 0 0.34 0 0 Z " fill="#C8AD44" transform="translate(211,226)"/>
<path d="M0 0 C3.02881176 2.85064637 5.77504073 5.81255092 8.375 9.0625 C9.16003906 10.03896484 9.16003906 10.03896484 9.9609375 11.03515625 C11 13 11 13 10.6640625 15.24609375 C10.44492187 15.82488281 10.22578125 16.40367188 10 17 C10 16.01 10 15.02 10 14 C9.34 14 8.68 14 8 14 C7.67 12.68 7.34 11.36 7 10 C6.34 10 5.68 10 5 10 C4.71125 9.360625 4.4225 8.72125 4.125 8.0625 C3.17176549 5.84793921 3.17176549 5.84793921 1 5 C0.375 2.4375 0.375 2.4375 0 0 Z " fill="#C8AF48" transform="translate(452,41)"/>
<path d="M0 0 C0 3.58912412 -0.66436554 4.10857029 -3 6.6875 C-3.556875 7.31011719 -4.11375 7.93273438 -4.6875 8.57421875 C-5.120625 9.04472656 -5.55375 9.51523437 -6 10 C-4.7934375 10.433125 -4.7934375 10.433125 -3.5625 10.875 C-1 12 -1 12 0 14 C-2.31 13.34 -4.62 12.68 -7 12 C-7.74609375 10.265625 -7.74609375 10.265625 -8 8 C-6.34765625 5.859375 -6.34765625 5.859375 -4.0625 3.75 C-3.31097656 3.04359375 -2.55945313 2.3371875 -1.78515625 1.609375 C-1.19605469 1.07828125 -0.60695313 0.5471875 0 0 Z " fill="#BFAD4F" transform="translate(339,32)"/>
<path d="M0 0 C0 1.65 0 3.3 0 5 C-0.598125 5.061875 -1.19625 5.12375 -1.8125 5.1875 C-4.26743306 5.83666493 -4.26743306 5.83666493 -5.5 8.5625 C-5.995 9.366875 -6.49 10.17125 -7 11 C-8.32 11 -9.64 11 -11 11 C-10.34 9.68 -9.68 8.36 -9 7 C-8.01 7 -7.02 7 -6 7 C-5.731875 6.401875 -5.46375 5.80375 -5.1875 5.1875 C-2.37142857 0 -2.37142857 0 0 0 Z " fill="#A38028" transform="translate(366,92)"/>
<path d="M0 0 C0 3.2388234 -0.19064577 4.36821203 -2 7 C-3.99145391 8.01691264 -5.99187074 9.01642648 -8 10 C-9.85315257 12.04946399 -9.85315257 12.04946399 -11 14 C-11.66 13.67 -12.32 13.34 -13 13 C-9.13242719 8.04467233 -4.81123996 4.03523352 0 0 Z " fill="#C6A84A" transform="translate(360,12)"/>
<path d="M0 0 C4.17576168 0.68416434 7.88080407 2.01365009 11.8125 3.5625 C13.55466797 4.24505859 13.55466797 4.24505859 15.33203125 4.94140625 C16.21246094 5.29074219 17.09289062 5.64007813 18 6 C18 6.33 18 6.66 18 7 C15.3125 7.75 15.3125 7.75 12 8 C9.5625 6.25 9.5625 6.25 7 4 C4.70747797 2.84894291 2.39233531 1.93817071 0 1 C0 0.67 0 0.34 0 0 Z " fill="#BAA562" transform="translate(351,157)"/>
<path d="M0 0 C3.61055091 0.76242216 6.85834625 2.12473374 10.25 3.5625 C11.32765625 4.01753906 12.4053125 4.47257812 13.515625 4.94140625 C14.33546875 5.29074219 15.1553125 5.64007813 16 6 C12.11764181 7.49828872 9.56550712 6.43110582 5.75 5.0625 C4.67234375 4.68222656 3.5946875 4.30195313 2.484375 3.91015625 C1.66453125 3.60980469 0.8446875 3.30945313 0 3 C0 2.01 0 1.02 0 0 Z " fill="#C4AC42" transform="translate(399,17)"/>
<path d="M0 0 C2.97 0.33 5.94 0.66 9 1 C8.67 2.32 8.34 3.64 8 5 C7.01 5.495 7.01 5.495 6 6 C3.96166576 4.7260411 1.96147874 3.38938077 0 2 C0 1.34 0 0.68 0 0 Z " fill="#CBAD51" transform="translate(358,209)"/>
<path d="M0 0 C1.9375 0.3125 1.9375 0.3125 4 1 C4.33 1.99 4.66 2.98 5 4 C3.02 4.33 1.04 4.66 -1 5 C-0.67 3.35 -0.34 1.7 0 0 Z M-3 5 C-2.34 5.33 -1.68 5.66 -1 6 C-2.28062485 7.7074998 -3.61767557 9.37373596 -5 11 C-5.66 11 -6.32 11 -7 11 C-5.84826645 8.53199953 -4.95216435 6.95216435 -3 5 Z " fill="#AB903C" transform="translate(318,155)"/>
<path d="M0 0 C0.33 0.66 0.66 1.32 1 2 C0.34 2 -0.32 2 -1 2 C-0.67 2.99 -0.34 3.98 0 5 C-1.125 6.5625 -1.125 6.5625 -3 8 C-6.1875 7.6875 -6.1875 7.6875 -9 7 C-6.24479785 4.04070881 -3.53372712 1.96318174 0 0 Z " fill="#CBB140" transform="translate(216,30)"/>
<path d="M0 0 C2 3 2 3 2 6 C-0.31 5.34 -2.62 4.68 -5 4 C-5 3.01 -5 2.02 -5 1 C-3 0 -3 0 0 0 Z " fill="#B69238" transform="translate(325,192)"/>
<path d="M0 0 C0.66 0.66 1.32 1.32 2 2 C1.67176873 6.34906427 0.80260764 10.0342632 -1 14 C-1.33 14 -1.66 14 -2 14 C-2.05437607 12.41705218 -2.09296271 10.83355744 -2.125 9.25 C-2.14820313 8.36828125 -2.17140625 7.4865625 -2.1953125 6.578125 C-1.99139502 3.8864142 -1.36551721 2.30095026 0 0 Z " fill="#C5B669" transform="translate(329,123)"/>
<path d="M0 0 C0.33 0.66 0.66 1.32 1 2 C2.32 2 3.64 2 5 2 C5 2.66 5 3.32 5 4 C6.65 4 8.3 4 10 4 C10 4.66 10 5.32 10 6 C10.99 6.33 11.98 6.66 13 7 C12.01 7.495 12.01 7.495 11 8 C8.92803369 7.26821134 6.8891448 6.44100997 4.875 5.5625 C3.77929688 5.08941406 2.68359375 4.61632812 1.5546875 4.12890625 C0.71164063 3.75636719 -0.13140625 3.38382812 -1 3 C-0.67 2.01 -0.34 1.02 0 0 Z " fill="#AF9953" transform="translate(246,80)"/>
<path d="M0 0 C0.66 0.33 1.32 0.66 2 1 C2 1.66 2 2.32 2 3 C2.9075 2.9175 3.815 2.835 4.75 2.75 C8 3 8 3 10.375 5 C10.91125 5.66 11.4475 6.32 12 7 C6.45949887 6.43174347 1.96284034 4.37113483 -3 2 C-2.01 1.34 -1.02 0.68 0 0 Z " fill="#C6A942" transform="translate(405,73)"/>
<path d="M0 0 C1.6266848 0.28211877 3.25132896 0.57602375 4.875 0.875 C5.77992188 1.03742188 6.68484375 1.19984375 7.6171875 1.3671875 C10 2 10 2 12 4 C10.35 4.66 8.7 5.32 7 6 C6.67 5.34 6.34 4.68 6 4 C3.47266765 3.34444881 3.47266765 3.34444881 1 3 C0.67 2.01 0.34 1.02 0 0 Z " fill="#A78D3D" transform="translate(339,69)"/>
<path d="M0 0 C3.73487777 0.4979837 5.81237635 0.87491756 9 3 C9 3.66 9 4.32 9 5 C5.37471432 5.20140476 3.13498292 4.85776765 0 3 C0 2.01 0 1.02 0 0 Z " fill="#B69F49" transform="translate(315,58)"/>
<path d="M0 0 C-2.64 2.64 -5.28 5.28 -8 8 C-8.33 6.68 -8.66 5.36 -9 4 C-8.01 4 -7.02 4 -6 4 C-6 2.68 -6 1.36 -6 0 C-3 -1 -3 -1 0 0 Z " fill="#C6AF45" transform="translate(321,236)"/>
<path d="M0 0 C0.66 0 1.32 0 2 0 C1.67 1.65 1.34 3.3 1 5 C0.01 5 -0.98 5 -2 5 C-2.33 5.66 -2.66 6.32 -3 7 C-5.0625 7.625 -5.0625 7.625 -7 8 C-6.02133662 6.85373678 -5.04205413 5.70800212 -4.0625 4.5625 C-3.51722656 3.92441406 -2.97195313 3.28632812 -2.41015625 2.62890625 C-1.63204305 1.73008851 -0.84063472 0.84063472 0 0 Z " fill="#C9AE41" transform="translate(368,4)"/>
<path d="M0 0 C2.64 0 5.28 0 8 0 C8 0.66 8 1.32 8 2 C8.99 2.33 9.98 2.66 11 3 C7.66666667 3 4.33333333 3 1 3 C0.67 2.01 0.34 1.02 0 0 Z " fill="#CDB155" transform="translate(329,136)"/>
<path d="M0 0 C0.33 0.99 0.66 1.98 1 3 C3.01508358 3.73323796 3.01508358 3.73323796 5 4 C4.95875 4.7425 4.9175 5.485 4.875 6.25 C5.00398134 9.08758952 5.57051222 10.58773938 7 13 C1.26598465 7.56777494 1.26598465 7.56777494 0 4 C0 2.68 0 1.36 0 0 Z " fill="#CCAC37" transform="translate(204,213)"/>
<path d="M0 0 C1.98 0.495 1.98 0.495 4 1 C4.33 2.32 4.66 3.64 5 5 C3.68 5.33 2.36 5.66 1 6 C1 5.34 1 4.68 1 4 C0.34 4 -0.32 4 -1 4 C-0.67 2.68 -0.34 1.36 0 0 Z " fill="#CDAF56" transform="translate(332,122)"/>
<path d="M0 0 C7.75 -0.125 7.75 -0.125 10 1 C10.625 3.0625 10.625 3.0625 11 5 C9.53932801 4.54917531 8.08151968 4.08906463 6.625 3.625 C5.81289063 3.36976562 5.00078125 3.11453125 4.1640625 2.8515625 C2 2 2 2 0 0 Z " fill="#C3AF64" transform="translate(260,88)"/>
<path d="M0 0 C0.99 0.33 1.98 0.66 3 1 C2.67 4.3 2.34 7.6 2 11 C0 9 0 9 -0.1953125 6.8359375 C-0.17210937 6.02382812 -0.14890625 5.21171875 -0.125 4.375 C-0.10695312 3.55773437 -0.08890625 2.74046875 -0.0703125 1.8984375 C-0.04710937 1.27195312 -0.02390625 0.64546875 0 0 Z " fill="#C6A031" transform="translate(240,64)"/>
<path d="M0 0 C3.63 0 7.26 0 11 0 C11 1.65 11 3.3 11 5 C7.27566618 3.7874262 3.62197194 2.49140021 0 1 C0 0.67 0 0.34 0 0 Z " fill="#C7AC40" transform="translate(266,250)"/>
<path d="M0 0 C4.95 1.98 4.95 1.98 10 4 C9.67 4.66 9.34 5.32 9 6 C5.44219804 5.39009109 2.3171411 4.4216319 -1 3 C-0.67 2.01 -0.34 1.02 0 0 Z " fill="#A48A46" transform="translate(419,237)"/>
<path d="M0 0 C2.97 0 5.94 0 9 0 C7.02 0.99 7.02 0.99 5 2 C3.29078411 3.5412312 3.29078411 3.5412312 2 5 C1.34 4.34 0.68 3.68 0 3 C0 2.01 0 1.02 0 0 Z " fill="#3E3E3E" transform="translate(205,328)"/>
<path d="M0 0 C0.99 0.33 1.98 0.66 3 1 C2.34 2.32 1.68 3.64 1 5 C-1.31 5 -3.62 5 -6 5 C-2.25 1.125 -2.25 1.125 0 0 Z " fill="#C2AA48" transform="translate(229,21)"/>
<path d="M0 0 C4.38889325 0.66498383 7.9811485 2.18757677 12 4 C8.52128379 5.15957207 7.65780355 4.77456651 4.3125 3.5625 C3.50425781 3.27503906 2.69601562 2.98757812 1.86328125 2.69140625 C1.24839844 2.46324219 0.63351562 2.23507813 0 2 C0 1.34 0 0.68 0 0 Z " fill="#A89451" transform="translate(332,149)"/>
<path d="M0 0 C4.21878192 -0.19622241 7.17010894 0.19769832 11 2 C11 2.99 11 3.98 11 5 C7.27566618 3.7874262 3.62197194 2.49140021 0 1 C0 0.67 0 0.34 0 0 Z " fill="#C9AF46" transform="translate(377,63)"/>
<path d="M0 0 C4.44870215 -0.39253254 7.14243493 0.84694043 11 3 C11 3.66 11 4.32 11 5 C9.53932801 4.54917531 8.08151968 4.08906463 6.625 3.625 C5.81289063 3.36976562 5.00078125 3.11453125 4.1640625 2.8515625 C2 2 2 2 0 0 Z " fill="#C1AB45" transform="translate(355,53)"/>
<path d="M0 0 C1.98 0.495 1.98 0.495 4 1 C3.34 2.98 2.68 4.96 2 7 C1.01 6.34 0.02 5.68 -1 5 C-0.67 3.35 -0.34 1.7 0 0 Z " fill="#312F30" transform="translate(350,346)"/>
<path d="M0 0 C1.32 0.33 2.64 0.66 4 1 C3.34 1 2.68 1 2 1 C1.67 1.99 1.34 2.98 1 4 C0.34 4 -0.32 4 -1 4 C-1 4.66 -1 5.32 -1 6 C-1.99 6.33 -2.98 6.66 -4 7 C-3.34 5.35 -2.68 3.7 -2 2 C-1.34 2 -0.68 2 0 2 C0 1.34 0 0.68 0 0 Z " fill="#C5A941" transform="translate(308,244)"/>
<path d="M0 0 C2 2 2 2 2.375 4.4375 C2 7 2 7 0 8.8125 C-0.66 9.204375 -1.32 9.59625 -2 10 C-1.67 8.68 -1.34 7.36 -1 6 C-0.34 6 0.32 6 1 6 C1 5.34 1 4.68 1 4 C0.01 3.67 -0.98 3.34 -2 3 C-1.34 2.01 -0.68 1.02 0 0 Z " fill="#CAAD34" transform="translate(323,225)"/>
<path d="M0 0 C-0.33 0.66 -0.66 1.32 -1 2 C-3.97 1.505 -3.97 1.505 -7 1 C-7 0.34 -7 -0.32 -7 -1 C-7.99 -1.33 -8.98 -1.66 -10 -2 C-5.93943859 -3.71792983 -3.64270496 -2.06971873 0 0 Z " fill="#AC8930" transform="translate(310,188)"/>
<path d="M0 0 C5.75 1.875 5.75 1.875 8 3 C7.67 4.32 7.34 5.64 7 7 C6.34 6.01 5.68 5.02 5 4 C2.44816596 2.79549696 2.44816596 2.79549696 0 2 C0 1.34 0 0.68 0 0 Z " fill="#BEA949" transform="translate(323,220)"/>
<path d="M0 0 C4.30840713 1.07710178 7.63576723 2.03947516 11 5 C7.0507432 4.44894091 3.65079826 3.61064629 0 2 C0 1.34 0 0.68 0 0 Z " fill="#C6A94B" transform="translate(285,203)"/>
<path d="M0 0 C2.64 0.99 5.28 1.98 8 3 C7.34 3.66 6.68 4.32 6 5 C3.36 4.01 0.72 3.02 -2 2 C-1.34 1.34 -0.68 0.68 0 0 Z " fill="#BEA145" transform="translate(349,145)"/>
<path d="M0 0 C4.95 1.98 4.95 1.98 10 4 C9.67 4.66 9.34 5.32 9 6 C8.01 6 7.02 6 6 6 C6 5.34 6 4.68 6 4 C4.02 3.34 2.04 2.68 0 2 C0 1.34 0 0.68 0 0 Z " fill="#C2B26A" transform="translate(278,41)"/>
<path d="M0 0 C0.33 0.66 0.66 1.32 1 2 C1.66 2 2.32 2 3 2 C3.33 1.34 3.66 0.68 4 0 C4.33 0.99 4.66 1.98 5 3 C3.68 3.99 2.36 4.98 1 6 C1 5.01 1 4.02 1 3 C0.01 2.67 -0.98 2.34 -2 2 C-1.34 1.34 -0.68 0.68 0 0 Z " fill="#CEB453" transform="translate(396,225)"/>
<path d="M0 0 C-0.33 1.32 -0.66 2.64 -1 4 C-2.875 4.625 -2.875 4.625 -5 5 C-5.66 4.34 -6.32 3.68 -7 3 C-2.25 0 -2.25 0 0 0 Z " fill="#D3BB60" transform="translate(385,217)"/>
<path d="M0 0 C0.99 0.495 0.99 0.495 2 1 C3.33059914 4.99179743 2.81502739 7.26317891 1 11 C0.67 11 0.34 11 0 11 C0 7.37 0 3.74 0 0 Z " fill="#CDAD31" transform="translate(418,176)"/>
<path d="M0 0 C1.32 0.33 2.64 0.66 4 1 C4 4 4 4 2 7 C1.34 6.67 0.68 6.34 0 6 C0 4.02 0 2.04 0 0 Z " fill="#CFB65A" transform="translate(377,169)"/>
<path d="M0 0 C2.76276177 0.52268466 5.3260876 1.10869587 8 2 C7.34 2.66 6.68 3.32 6 4 C2.875 3.625 2.875 3.625 0 3 C0 2.01 0 1.02 0 0 Z " fill="#A79147" transform="translate(323,112)"/>
<path d="M0 0 C0.66 0.33 1.32 0.66 2 1 C1.01 2.485 1.01 2.485 0 4 C0.99 4.99 1.98 5.98 3 7 C1.02 6.34 -0.96 5.68 -3 5 C-1.125 1.125 -1.125 1.125 0 0 Z " fill="#8C753F" transform="translate(292,179)"/>
</svg>
