<?xml version="1.0" standalone="no"?>
<!DOCTYPE svg PUBLIC "-//W3C//DTD SVG 20010904//EN"
 "http://www.w3.org/TR/2001/REC-SVG-20010904/DTD/svg10.dtd">
<svg version="1.0" xmlns="http://www.w3.org/2000/svg"
 width="814.000000pt" height="292.000000pt" viewBox="0 0 814.000000 292.000000"
 preserveAspectRatio="xMidYMid meet">

<g transform="translate(0.000000,292.000000) scale(0.100000,-0.100000)"
fill="#000000" stroke="none">
<path d="M7800 2311 c0 -397 -3 -581 -10 -581 -6 0 -95 73 -199 163 -644 557
-785 677 -795 677 -3 0 -6 -421 -6 -935 0 -514 2 -935 5 -935 3 0 77 61 165
136 l160 137 1 286 c1 157 4 354 8 438 l6 152 495 -439 c272 -241 498 -439
503 -439 4 -1 7 363 7 808 l0 808 -127 114 c-71 63 -147 131 -170 153 l-43 39
0 -582z"/>
<path d="M5618 2273 l-3 -328 -75 0 -75 0 -5 321 -5 320 -248 -323 -248 -323
-317 0 -317 0 -217 283 c-120 155 -231 298 -247 317 l-30 35 -1 -307 0 -308
-410 0 -410 0 0 155 0 155 330 0 330 0 0 155 0 155 -1042 0 c-1128 0 -1151 -1
-1306 -54 -158 -54 -279 -160 -351 -308 -75 -152 -112 -363 -91 -529 46 -386
212 -599 539 -692 75 -22 84 -22 1159 -25 l1082 -3 0 166 0 165 -327 2 -328 3
-3 158 -3 157 416 0 415 0 0 -325 0 -325 165 0 165 0 2 322 3 323 225 -290
c124 -159 230 -295 236 -303 8 -11 63 51 255 289 l244 304 3 -322 2 -323 165
0 165 0 2 328 3 327 78 3 77 3 0 -336 0 -335 500 0 500 0 0 175 0 175 -330 0
-330 0 0 160 0 160 225 0 c218 0 225 -1 225 -20 0 -11 2 -20 5 -20 11 0 295
194 295 201 0 9 -270 196 -285 198 -5 0 -10 -9 -10 -22 l0 -22 -230 0 -230 0
-3 173 -2 172 335 0 335 0 0 155 0 155 -500 0 -500 0 -2 -327z m-3774 -28
c198 -52 339 -203 369 -396 43 -277 -192 -539 -485 -539 -319 0 -559 290 -483
583 23 89 62 156 129 222 124 123 305 173 470 130z"/>
<path d="M397 2448 c-4 -79 -7 -300 -7 -493 0 -369 -6 -429 -49 -513 -22 -43
-73 -93 -116 -115 -36 -18 -132 -37 -187 -37 l-38 0 0 -160 0 -160 78 0 c94 0
212 28 302 72 85 41 212 167 265 262 64 116 67 140 72 719 3 285 2 529 -1 543
l-6 24 -154 0 -153 0 -6 -142z"/>
<path d="M4740 498 c-51 -14 -87 -44 -117 -96 -24 -41 -28 -58 -28 -127 0 -98
27 -163 85 -201 72 -48 191 -39 233 17 22 31 36 119 18 119 -6 0 -11 -7 -11
-15 0 -35 -34 -97 -61 -110 -76 -40 -148 -2 -175 93 -20 68 -15 193 10 240 16
32 61 62 91 62 34 0 77 -32 95 -72 l18 -40 30 56 30 56 -33 0 c-19 0 -44 4
-57 9 -43 15 -93 19 -128 9z"/>
<path d="M6325 505 c-5 -2 -22 -6 -37 -9 -41 -9 -88 -55 -114 -111 -50 -107
-20 -254 63 -309 86 -57 205 -40 243 35 21 40 26 84 11 93 -5 3 -14 -14 -20
-38 -24 -95 -121 -128 -186 -63 -40 40 -55 89 -55 185 0 110 33 176 95 188 47
9 93 -18 115 -68 l18 -41 26 51 c14 28 26 54 26 57 0 3 -13 5 -29 5 -16 0 -40
4 -53 9 -30 11 -90 20 -103 16z"/>
<path d="M2742 481 c-66 -23 -82 -37 -53 -46 18 -6 21 -14 21 -71 0 -61 -1
-64 -24 -64 -13 0 -26 -7 -30 -15 -4 -11 2 -15 24 -15 38 0 39 -17 3 -23 l-28
-4 28 -2 c27 -1 27 -1 27 -76 0 -64 -3 -77 -20 -87 -11 -7 -20 -16 -20 -20 0
-12 250 -9 294 3 88 24 116 115 56 182 -16 19 -27 36 -24 39 2 3 -8 4 -23 1
-26 -3 -26 -3 -9 9 66 44 80 82 50 139 -33 65 -162 88 -272 50z m188 -37 c32
-31 33 -86 2 -117 -18 -17 -35 -22 -87 -24 l-65 -2 0 79 0 79 33 10 c44 13 87
4 117 -25z m17 -208 c30 -36 30 -86 0 -122 -18 -21 -35 -28 -76 -32 -39 -3
-55 -1 -62 9 -6 10 -9 10 -9 2 0 -7 -4 -13 -10 -13 -6 0 -10 39 -10 96 l0 97
72 -5 c62 -5 75 -9 95 -32z"/>
<path d="M2890 440 c8 -5 20 -10 25 -10 6 0 3 5 -5 10 -8 5 -19 10 -25 10 -5
0 -3 -5 5 -10z"/>
<path d="M2801 344 c0 -11 3 -14 6 -6 3 7 2 16 -1 19 -3 4 -6 -2 -5 -13z"/>
<path d="M2800 243 c0 -5 27 -8 59 -8 33 0 54 3 48 7 -16 10 -107 10 -107 1z"/>
<path d="M3650 478 c-45 -31 -62 -64 -56 -111 8 -66 39 -90 155 -119 92 -23
121 -47 121 -100 0 -53 -43 -81 -113 -75 -56 5 -95 30 -119 76 l-16 32 -27
-53 c-15 -29 -29 -55 -31 -58 -3 -2 -16 9 -31 25 -24 29 -24 29 2 -8 23 -33
25 -40 13 -55 -12 -15 -11 -16 5 -3 9 7 17 20 17 28 0 12 10 14 53 9 171 -18
203 -19 236 -2 66 34 90 120 52 182 -20 33 -52 48 -163 79 -37 10 -64 24 -77
41 -27 34 -26 47 3 81 44 51 142 29 170 -38 l12 -29 26 53 26 53 -37 1 c-20 1
-70 4 -111 8 -69 6 -78 5 -110 -17z"/>
<path d="M5597 486 c-84 -30 -121 -95 -121 -211 0 -63 5 -89 22 -122 64 -122
245 -139 319 -30 77 112 39 308 -70 358 -49 22 -97 23 -150 5z m122 -30 c37
-20 52 -57 58 -147 10 -145 -30 -229 -109 -229 -54 0 -76 14 -99 63 -26 58
-26 196 0 253 32 70 87 92 150 60z"/>
<path d="M5668 443 c6 -2 18 -2 25 0 6 3 1 5 -13 5 -14 0 -19 -2 -12 -5z"/>
<path d="M5611 416 c-43 -46 -54 -232 -16 -282 12 -16 12 -11 0 30 -27 88 -13
210 27 254 12 12 19 22 16 22 -2 0 -15 -11 -27 -24z"/>
<path d="M1120 483 c1 -5 12 -28 25 -53 17 -32 24 -39 25 -24 0 27 27 50 64
57 54 9 54 9 56 -185 1 -174 0 -182 -21 -204 l-22 -24 71 0 c51 0 72 4 72 13
1 6 9 2 19 -10 11 -13 23 -23 27 -23 4 0 -5 13 -20 29 l-27 28 3 181 c2 100
-1 177 -5 173 -4 -4 -7 -89 -5 -188 2 -141 0 -179 -9 -176 -10 4 -13 53 -13
199 l0 194 24 0 c41 0 74 -17 89 -46 l15 -28 21 42 c11 23 21 44 21 47 0 3
-92 5 -205 5 -113 0 -205 -3 -205 -7z"/>
<path d="M1603 472 c13 -14 17 -38 17 -93 0 -72 -1 -76 -30 -97 -37 -28 -39
-46 -3 -27 29 15 48 10 23 -5 -10 -7 -11 -10 -2 -10 8 0 12 -21 12 -72 0 -61
-3 -75 -22 -96 l-23 -23 85 2 c73 2 85 0 88 -15 2 -9 8 -14 13 -10 5 3 -2 19
-16 36 -24 29 -26 38 -23 105 2 40 0 73 -4 73 -14 0 -9 -155 5 -170 6 -8 2 -6
-10 4 -21 17 -23 28 -23 103 l0 83 79 0 78 0 2 -81 c2 -73 0 -84 -21 -106
l-23 -24 85 2 c56 1 85 -2 88 -9 2 -7 9 -12 15 -12 6 0 -1 13 -16 28 l-27 28
0 179 c0 155 2 181 18 199 17 21 17 21 -5 2 -22 -19 -23 -25 -23 -201 0 -130
3 -185 13 -195 6 -8 2 -6 -10 4 -22 18 -23 25 -23 194 0 167 1 177 22 199 l21
23 -73 0 c-70 0 -72 -1 -57 -18 24 -26 24 -167 1 -176 -20 -8 -78 -8 -98 0
-23 9 -23 149 -1 158 8 3 15 11 15 17 0 7 -8 5 -20 -6 -17 -15 -20 -31 -20
-92 0 -42 -4 -73 -10 -73 -6 0 -10 31 -10 72 0 60 4 76 22 95 l21 23 -73 0
c-70 0 -72 -1 -57 -18z"/>
<path d="M2058 474 c19 -13 22 -24 22 -90 0 -68 -2 -75 -23 -83 -13 -5 -29
-17 -37 -27 -14 -16 -13 -17 5 -10 39 16 55 18 55 8 0 -6 -6 -13 -12 -15 -10
-4 -10 -6 0 -6 8 -1 12 -24 12 -80 0 -70 -2 -80 -22 -94 -21 -15 -8 -16 170
-16 l193 -1 -24 32 c-13 18 -27 42 -31 52 -6 17 -10 15 -39 -19 -31 -35 -35
-37 -104 -40 l-73 -4 0 100 0 99 49 0 c41 0 53 -4 69 -25 11 -14 23 -25 26
-25 3 0 6 30 6 68 l-1 67 -22 -27 c-20 -24 -30 -28 -75 -28 l-52 0 0 81 0 81
71 -4 c67 -4 74 -6 99 -37 l28 -32 25 45 26 46 -182 0 c-167 0 -180 -1 -159
-16z"/>
<path d="M3168 471 c19 -17 22 -29 22 -88 0 -68 0 -70 -32 -84 -17 -8 -34 -20
-36 -27 -3 -11 0 -12 16 -3 25 13 52 14 52 2 0 -5 -8 -12 -17 -14 -17 -4 -17
-5 0 -6 14 -1 17 -12 17 -75 0 -69 -2 -76 -26 -95 l-27 -21 198 0 197 0 -25
30 c-14 16 -29 40 -33 52 -6 21 -7 21 -33 -11 -26 -31 -74 -50 -128 -51 -22 0
-23 3 -23 84 l0 85 38 4 37 4 -42 1 -43 2 0 -90 c0 -53 -4 -90 -10 -90 -6 0
-10 40 -10 100 l0 100 47 0 c39 0 51 -5 70 -27 l22 -28 1 69 0 69 -21 -27
c-15 -19 -30 -26 -55 -26 l-34 0 0 64 0 65 48 4 47 3 -52 2 -53 2 0 -70 c0
-40 -4 -70 -10 -70 -6 0 -10 33 -10 80 l0 80 50 0 c62 0 116 -21 125 -49 6
-20 25 -30 25 -12 0 4 11 25 25 45 l24 36 -182 0 c-179 -1 -182 -1 -159 -19z"/>
<path d="M3960 483 c1 -5 12 -28 25 -53 17 -32 24 -39 25 -24 0 38 40 59 102
55 15 -1 16 -21 18 -182 1 -175 0 -183 -21 -205 l-22 -24 71 0 c47 0 72 4 72
11 0 8 5 8 15 -1 8 -7 15 -19 15 -27 0 -8 5 -11 11 -7 7 4 1 16 -16 34 l-26
27 3 181 c2 100 -1 177 -5 173 -4 -4 -7 -89 -5 -188 2 -141 0 -179 -9 -176
-10 4 -13 53 -13 199 l0 194 24 0 c41 0 74 -17 89 -46 l15 -28 21 42 c11 23
21 44 21 47 0 3 -92 5 -205 5 -113 0 -205 -3 -205 -7z"/>
<path d="M5048 471 c19 -17 22 -29 22 -95 0 -73 -1 -76 -29 -90 -16 -9 -31
-22 -35 -31 -5 -14 -2 -14 24 0 16 8 31 11 35 6 3 -5 -3 -12 -12 -14 -17 -4
-17 -5 0 -6 15 -1 17 -12 17 -76 0 -64 -3 -77 -20 -87 -36 -23 -21 -29 60 -27
69 2 83 -1 95 -17 8 -10 15 -14 15 -8 0 6 -11 21 -25 34 -22 21 -25 32 -27
104 l-2 81 -3 -78 c-3 -54 0 -84 9 -95 12 -14 11 -14 -9 -1 -21 13 -23 21 -23
101 l0 88 79 0 78 0 2 -84 c2 -76 0 -86 -18 -96 -38 -20 -22 -30 49 -30 45 0
70 4 70 11 0 6 9 1 19 -12 11 -13 22 -22 24 -19 3 3 -9 21 -26 40 -17 19 -28
27 -24 17 5 -13 3 -17 -5 -15 -10 4 -14 53 -16 194 -3 183 -2 190 19 207 21
16 19 17 -57 17 -74 0 -77 -1 -56 -16 20 -13 22 -24 22 -94 l0 -79 -33 -6
c-19 -4 -47 -5 -63 -3 -29 3 -29 4 -32 77 -2 59 1 78 15 95 l18 21 -22 -19
c-20 -17 -23 -29 -23 -93 0 -42 -4 -73 -10 -73 -6 0 -10 33 -10 79 0 70 2 80
23 94 21 15 18 16 -58 16 -80 0 -80 0 -57 -18z"/>
<path d="M5948 474 c21 -15 22 -20 22 -196 0 -174 -1 -183 -22 -206 l-23 -23
83 2 c71 2 85 -1 97 -17 8 -10 15 -14 15 -8 0 6 -11 21 -25 34 -25 23 -25 24
-25 206 0 152 2 183 15 188 8 3 15 11 15 17 0 7 -8 5 -20 -6 -20 -18 -21 -28
-18 -206 2 -149 0 -185 -9 -177 -10 8 -13 58 -13 186 0 167 1 177 22 199 l21
23 -78 0 c-75 0 -78 -1 -57 -16z"/>
<path d="M6608 473 c19 -14 22 -24 22 -89 l0 -74 -35 -14 c-41 -17 -50 -41 -9
-26 49 19 65 2 17 -17 l-28 -12 28 6 27 5 0 -77 c0 -67 -3 -79 -22 -96 -23
-18 -20 -18 170 -19 l194 0 -25 30 c-14 16 -29 40 -33 52 -6 21 -7 21 -33 -11
-26 -31 -74 -50 -128 -51 -22 0 -23 3 -23 84 l0 85 38 4 37 4 -42 1 -43 2 0
-90 c0 -53 -4 -90 -10 -90 -6 0 -10 40 -10 100 l0 100 49 0 c42 0 52 -4 70
-27 l20 -28 1 69 0 69 -21 -27 c-15 -19 -30 -26 -55 -26 l-34 0 0 64 0 65 48
4 47 4 -50 -1 -50 -1 -3 -67 c-4 -96 -22 -85 -22 13 l0 82 72 -5 c66 -5 74 -8
100 -39 15 -19 28 -29 28 -23 0 6 11 28 25 48 l24 36 -182 -1 c-168 0 -180 -1
-159 -16z"/>
<path d="M3897 425 c-15 -30 -25 -55 -22 -55 7 0 57 101 53 106 -2 2 -16 -21
-31 -51z"/>
<path d="M5404 458 l-19 -23 23 19 c12 11 22 21 22 23 0 8 -8 2 -26 -19z"/>
<path d="M1530 438 c-11 -18 -20 -40 -20 -48 1 -8 7 0 16 19 8 19 19 41 26 48
6 7 8 13 4 13 -3 0 -15 -15 -26 -32z"/>
<path d="M2404 458 c-4 -7 -14 -24 -22 -38 -14 -24 -13 -24 3 -5 20 24 37 55
31 55 -3 0 -8 -6 -12 -12z"/>
<path d="M3509 453 c-13 -16 -12 -17 4 -4 16 13 21 21 13 21 -2 0 -10 -8 -17
-17z"/>
<path d="M4370 438 c-11 -18 -20 -40 -19 -48 0 -8 7 1 16 20 8 19 20 41 25 48
6 6 8 12 4 12 -3 0 -15 -15 -26 -32z"/>
<path d="M6501 410 c-18 -33 -30 -60 -28 -60 7 0 69 111 65 116 -2 2 -19 -24
-37 -56z"/>
<path d="M6934 430 c-15 -22 -25 -42 -23 -44 2 -2 16 16 31 40 34 55 28 58 -8
4z"/>
<path d="M3738 453 c7 -3 16 -2 19 1 4 3 -2 6 -13 5 -11 0 -14 -3 -6 -6z"/>
<path d="M4752 444 c-45 -31 -67 -121 -53 -214 6 -36 7 -26 8 47 1 109 19 151
73 170 23 8 28 12 15 12 -11 1 -31 -6 -43 -15z"/>
<path d="M4944 409 c-14 -28 -24 -53 -22 -55 2 -2 16 21 31 51 15 30 25 55 22
55 -3 0 -16 -23 -31 -51z"/>
<path d="M6338 453 c6 -2 18 -2 25 0 6 3 1 5 -13 5 -14 0 -19 -2 -12 -5z"/>
<path d="M2180 442 c0 -4 17 -6 38 -4 58 5 62 10 10 11 -27 1 -48 -3 -48 -7z"/>
<path d="M3690 435 c-6 -8 -10 -19 -8 -24 1 -5 11 2 21 15 19 26 8 34 -13 9z"/>
<path d="M3781 447 c2 -1 13 -9 24 -17 19 -14 19 -14 6 3 -7 9 -18 17 -24 17
-6 0 -8 -1 -6 -3z"/>
<path d="M5820 446 c0 -2 8 -10 18 -17 15 -13 16 -12 3 4 -13 16 -21 21 -21
13z"/>
<path d="M6291 429 c-27 -29 -45 -120 -37 -188 7 -55 36 -133 53 -144 6 -4 0
14 -13 39 -44 88 -40 240 8 291 12 13 19 23 15 23 -3 0 -15 -10 -26 -21z"/>
<path d="M1206 431 c-4 -5 3 -7 14 -4 23 6 26 13 6 13 -8 0 -17 -4 -20 -9z"/>
<path d="M3390 436 c0 -2 7 -7 16 -10 8 -3 12 -2 9 4 -6 10 -25 14 -25 6z"/>
<path d="M6830 436 c0 -2 7 -7 16 -10 8 -3 12 -2 9 4 -6 10 -25 14 -25 6z"/>
<path d="M3480 410 c-6 -11 -8 -20 -6 -20 3 0 10 9 16 20 6 11 8 20 6 20 -3 0
-10 -9 -16 -20z"/>
<path d="M3052 380 c0 -19 2 -27 5 -17 2 9 2 25 0 35 -3 9 -5 1 -5 -18z"/>
<path d="M3680 383 c0 -6 8 -17 18 -24 16 -13 16 -13 2 6 -8 11 -16 22 -17 24
-2 2 -3 0 -3 -6z"/>
<path d="M5861 385 c1 -19 18 -51 18 -35 0 8 -4 22 -9 30 -5 8 -9 11 -9 5z"/>
<path d="M2313 280 c0 -41 2 -58 4 -37 2 20 2 54 0 75 -2 20 -4 3 -4 -38z"/>
<path d="M3423 280 c0 -41 2 -58 4 -37 2 20 2 54 0 75 -2 20 -4 3 -4 -38z"/>
<path d="M6863 280 c0 -41 2 -58 4 -37 2 20 2 54 0 75 -2 20 -4 3 -4 -38z"/>
<path d="M3026 312 l-19 -27 24 22 c12 12 21 24 18 27 -2 2 -13 -8 -23 -22z"/>
<path d="M5883 265 c0 -38 2 -53 4 -32 2 20 2 52 0 70 -2 17 -4 1 -4 -38z"/>
<path d="M3637 262 c20 -18 151 -58 160 -49 2 3 -27 12 -64 21 -37 10 -79 24
-93 32 l-25 15 22 -19z"/>
<path d="M2198 253 c12 -2 30 -2 40 0 9 3 -1 5 -23 4 -22 0 -30 -2 -17 -4z"/>
<path d="M3948 188 c3 -44 0 -59 -20 -87 -39 -57 -80 -73 -168 -66 -41 3 -100
7 -130 10 l-55 4 65 -12 c36 -6 100 -11 142 -11 85 -1 114 12 156 74 22 34 30
102 13 128 -4 7 -6 -10 -3 -40z"/>
<path d="M3059 213 c16 -32 13 -95 -5 -121 -17 -25 -46 -42 -89 -53 -25 -6
-26 -7 -7 -8 31 -1 76 23 101 55 25 32 28 101 5 130 -15 18 -15 18 -5 -3z"/>
<path d="M3810 206 c0 -2 7 -7 16 -10 8 -3 12 -2 9 4 -6 10 -25 14 -25 6z"/>
<path d="M5862 157 c-25 -71 -92 -117 -187 -130 l-30 -4 30 -1 c46 -3 101 16
135 45 32 26 74 97 68 114 -2 6 -9 -5 -16 -24z"/>
<path d="M6517 152 c-11 -62 -58 -110 -127 -128 -53 -13 -53 -14 -10 -8 25 3
58 13 75 22 35 20 78 100 73 134 -3 16 -6 10 -11 -20z"/>
<path d="M4958 148 c-9 -52 -36 -88 -83 -109 -22 -10 -33 -19 -24 -19 49 0
125 91 117 142 -3 17 -5 14 -10 -14z"/>
<path d="M3657 151 c3 -11 15 -28 26 -38 22 -18 22 -18 5 3 -10 11 -18 26 -18
32 0 6 -4 13 -9 16 -5 4 -7 -3 -4 -13z"/>
<path d="M2390 144 c0 -6 15 -26 33 -45 17 -20 25 -26 16 -15 -9 12 -23 32
-32 46 -10 13 -17 20 -17 14z"/>
<path d="M4720 144 c0 -5 7 -18 15 -28 8 -11 15 -16 15 -10 0 5 -7 18 -15 28
-8 11 -15 16 -15 10z"/>
<path d="M6946 128 c4 -7 18 -27 32 -45 14 -19 21 -38 16 -45 -5 -10 -4 -10 6
-1 10 9 6 21 -20 57 -31 43 -51 63 -34 34z"/>
<path d="M2445 40 c-3 -5 -1 -10 4 -10 6 0 11 5 11 10 0 6 -2 10 -4 10 -3 0
-8 -4 -11 -10z"/>
<path d="M4788 13 c6 -2 18 -2 25 0 6 3 1 5 -13 5 -14 0 -19 -2 -12 -5z"/>
</g>
</svg>
